<svg width="620" height="620" viewBox="0 0 620 620" fill="none" xmlns="http://www.w3.org/2000/svg">
<path d="M598.701 371.38C594.854 339.673 586.903 308.601 575.048 278.944C465.044 12.8991 27.5597 40.5263 15.4976 472.307C15.5169 472.773 15.7156 473.213 16.0521 473.536C16.3886 473.859 16.8369 474.039 17.3033 474.039C17.7697 474.039 18.218 473.859 18.5545 473.536C18.8911 473.213 19.0897 472.773 19.1091 472.307C32.2376 17.7257 529.344 8.95586 591.676 349.99C599.026 390.175 600.65 431.777 600.889 472.902C600.889 473.38 601.079 473.839 601.418 474.178C601.756 474.516 602.215 474.706 602.693 474.706C603.172 474.706 603.631 474.516 603.969 474.178C604.307 473.839 604.498 473.38 604.498 472.902C604.756 438.964 602.819 405.046 598.701 371.358" fill="#ACEAC7"/>
<path d="M577.622 379.44C570.225 320.053 552.202 272.155 512.888 225.326C351.068 32.869 46.1395 143.415 37.2642 472.313C37.2642 472.791 37.4542 473.25 37.7926 473.588C38.131 473.927 38.5899 474.117 39.0684 474.117C39.5469 474.117 40.0058 473.927 40.3441 473.588C40.6825 473.25 40.8726 472.791 40.8726 472.313C41.5491 437.877 46.1028 403.627 54.4475 370.211C129.889 76.8797 441.417 69.4397 546.755 283.175C575.79 342.048 578.375 407.055 578.775 473.553C578.795 474.018 578.993 474.457 579.329 474.78C579.665 475.102 580.112 475.282 580.578 475.282C581.043 475.282 581.491 475.102 581.827 474.78C582.163 474.457 582.361 474.018 582.381 473.553C582.669 442.115 581.08 410.688 577.622 379.44Z" fill="#F55555"/>
<path d="M548.721 387.051C545.964 362.196 540.026 337.799 531.051 314.458C511.255 264.79 466.946 210.044 420.645 183.898C395.679 169.842 368.094 161.059 339.597 158.093C311.1 155.127 282.297 158.04 254.971 166.653C195.451 185.324 155.802 223.603 123.504 276.325C84.9489 339.283 70.7509 398.775 68.8909 472.291C68.8909 472.77 69.081 473.229 69.4193 473.567C69.7577 473.905 70.2166 474.095 70.6951 474.095C71.1736 474.095 71.6325 473.905 71.9708 473.567C72.3092 473.229 72.4993 472.77 72.4993 472.291C74.0493 408.8 85.0543 354.15 115.103 298.186C129.394 271.566 146.227 245.554 167.638 224.074C230.782 160.781 321.879 144.113 398.815 177.097C454.115 200.765 499.437 255.781 521.038 300.579C546.973 354.37 549.158 413.776 549.416 474.35C549.416 474.828 549.606 475.287 549.944 475.625C550.282 475.964 550.741 476.154 551.22 476.154C551.698 476.154 552.157 475.964 552.496 475.625C552.834 475.287 553.024 474.828 553.024 474.35C553.316 445.191 551.882 416.04 548.727 387.051" fill="#FF9F48"/>
<path d="M518.875 379.576C496.884 280.175 432.794 191.344 332.652 184.171C191.416 174.077 103.382 326.771 100.053 471.907C100.072 472.372 100.271 472.813 100.607 473.136C100.944 473.459 101.392 473.639 101.858 473.639C102.325 473.639 102.773 473.459 103.11 473.136C103.446 472.813 103.645 472.372 103.664 471.907C112.102 105.862 522.766 81.0957 524.402 472.337C524.402 472.816 524.592 473.275 524.931 473.613C525.269 473.952 525.728 474.142 526.207 474.142C526.685 474.142 527.144 473.952 527.482 473.613C527.821 473.275 528.011 472.816 528.011 472.337C528.283 441.18 525.22 410.082 518.875 379.576Z" fill="#FFD35C"/>
<path d="M339.471 208.236C325.521 205.232 317.033 226.296 317.033 226.296C317.033 226.296 300.888 198.111 289.952 214.799C279.015 231.486 318.949 253.105 318.949 253.105C352.339 232.859 353.427 211.237 339.471 208.236ZM150.61 390.069C144.366 390.627 143.551 400.591 143.551 400.591C143.551 400.591 133.092 390.882 130.683 399.314C128.274 407.746 147.863 411.593 147.863 411.593C159.234 398.725 156.869 389.508 150.61 390.069ZM493.423 429.064C487.099 423.971 477.421 432.512 477.421 432.512C477.421 432.512 476.417 414.085 466.596 419.771C456.775 425.456 471.556 446.629 471.556 446.629C493.656 444.856 499.741 434.155 493.417 429.064" fill="#F55555"/>
<path d="M446.043 336.893C437.834 329.787 430.729 315.27 435.921 310.081C441.114 304.891 439.211 288.188 426.339 283.814C413.468 279.44 427.44 277.794 409.109 258.376C390.779 238.957 369.169 259.191 369.169 259.191C369.169 259.191 352.212 249.336 332.505 263.568C313.44 277.329 325.431 290.169 326.216 290.969C326.86 291.024 327.507 291.032 328.153 290.994C329.508 291.264 339.257 297.172 347.85 288.734C349.072 287.644 350.072 286.329 350.799 284.862C351.307 283.824 352.538 283.895 352.426 285.079C351.58 294.026 354.522 299.324 362.656 302.07C365.941 303.223 369.427 303.689 372.899 303.441C376.372 303.192 379.756 302.234 382.843 300.626C399.351 293.356 403.083 305.437 398.514 320.844C400.849 319.789 403.406 319.317 405.964 319.467C408.522 319.617 411.005 320.385 413.202 321.706C425.896 329.601 419.712 352.411 395.501 340.885C392.8 345.395 389.585 349.575 385.918 353.341C395.558 358.893 403.906 366.431 410.408 375.457C414.983 379.264 418.863 383.835 421.878 388.966C439.335 386.539 438.662 363.943 438.662 363.943C448.244 360.146 454.264 343.998 446.055 336.893" fill="#B26EE6"/>
<path d="M197.496 365.078C181.351 378.349 172.696 397.702 175.954 412.92C178.462 401.109 196.057 378.119 208.848 377.98C210.109 377.947 211.35 378.308 212.397 379.012C213.445 379.716 214.247 380.727 214.694 381.907C220.37 377.048 226.745 373.071 233.604 370.109C248.131 363.797 246.163 367.908 248.131 362.57C233.056 368.928 211.582 368.128 197.483 365.078M418.166 411.035C407.744 423.537 400.422 416.872 404.018 409.795C396.5 415.022 390.04 410.942 397.167 399.224C386.651 405.883 381.977 395.606 393.378 381.644C392.47 380.816 389.798 378.02 388.589 376.684C382.442 369.864 386.729 372.146 380.656 369.117C382.739 393.099 360.137 399.41 350.729 390.448C345.769 385.758 344.529 372.877 344.039 366.001C336.17 365.811 328.345 367.225 321.039 370.156C313.734 373.087 307.102 377.475 301.547 383.051C309.125 393.044 314.931 404.264 318.712 416.221C322.085 413.614 321.945 413.307 322.705 413.345C341.06 389.611 348.745 396.075 343.394 412.086C360.286 398.065 366.226 404.466 359.495 415.118C367.621 410.297 373.318 416.531 365.15 425.407C371.843 423.627 373.672 426.647 371.378 431.647C366.765 441.697 350.447 449.094 350.707 449.984C351.28 452.002 352.3 452.433 341.181 462.16C352.341 466.879 364.579 463.71 374.121 456.208C380.357 451.358 385.274 445.019 388.422 437.773C388.676 437.184 389.085 436.598 389.773 436.79C390.347 436.951 390.939 437.283 390.681 437.89C388.858 442.209 386.404 446.233 383.4 449.832C372.943 462.514 355.025 471.296 339.07 463.837C326.546 473.98 311.998 481.325 296.401 485.379C312.909 507.656 351.708 514.882 374.856 508.242C383.896 505.487 392.238 500.82 399.315 494.555C414.195 481.424 415.097 471.147 417.465 471.525C425.289 452.153 425.538 430.546 418.163 410.998" fill="#FFD35C"/>
<path d="M299.805 382.378C310.909 371.702 325.409 365.264 340.775 364.188C328.17 358.58 317.525 347.925 314.45 340.197C311.742 340.495 309.058 340.98 306.417 341.651C305.633 347.852 303.1 353.702 299.114 358.517C295.128 363.332 289.854 366.913 283.908 368.841C289.997 372.333 295.387 376.923 299.805 382.378ZM385.923 353.372C375.774 363.946 379.326 355.101 380.653 369.132C381.868 369.752 383.177 370.443 384.568 371.271C381.927 363.989 394.426 361.078 410.404 375.472C404.013 366.354 395.645 358.799 385.923 353.372ZM348.525 450.157C344.185 436.619 323.322 415 322.665 415.648C293.862 440.051 246.597 434.868 239.333 413.27C238.903 411.993 240.043 411.72 240.883 413.843C252.834 437.738 296.398 433.919 316.678 417.805C311.474 402.066 302.976 384.945 289.916 374.74C288.112 373.32 286.182 372.069 284.15 371.001C282.969 370.381 283.505 370.295 282.696 373.255C279.869 383.727 275.21 392.342 264.701 393.948C254.753 395.476 243.001 390.848 243.286 379.322C243.867 374.602 245.012 369.968 246.696 365.521C234.653 368.507 223.442 374.179 213.901 382.112C214.599 384.803 212.763 387.816 206.108 396.902C220.823 409.079 217.956 422.241 205.227 416.974C214.394 428.389 209.437 434.644 199.957 430.134C204.39 438.194 196.402 444.673 182.551 432.226C183.805 436.079 185.348 439.831 187.167 443.451C187.787 443.141 187.864 444.518 188.168 445.349C204.384 486.631 291.528 508.638 345.862 454.804C349.721 451.003 349.077 451.939 348.528 450.154" fill="#F55555"/>
<path d="M315.947 271.055C315.763 270.226 315.385 269.453 314.843 268.799C314.302 268.146 313.613 267.63 312.833 267.295C312.053 266.96 311.205 266.814 310.358 266.872C309.511 266.929 308.689 267.186 307.962 267.623C305.026 269.667 301.438 270.552 297.889 270.106C294.34 269.661 291.081 267.917 288.742 265.211C276.156 252.898 256.449 247.151 245.518 256.99C242.905 256.543 240.223 256.733 237.699 257.542C235.175 258.351 232.882 259.757 231.017 261.64C231.017 261.64 209.685 257.808 204.477 269.849C199.269 281.889 212.141 298.304 190.794 301.577C169.447 304.851 178.208 336.325 199 345.346C199 345.346 198.727 357.387 183.128 357.659C175.957 357.786 183.99 362.13 197.515 365.053C212.872 368.379 233.475 369.421 247.4 362.991C241.829 359.307 237.118 354.465 233.586 348.796C218.679 356.023 209.137 347.798 212.953 336.768C213.458 335.001 214.368 333.376 215.611 332.021C216.854 330.667 218.395 329.62 220.112 328.964C221.829 328.308 223.676 328.062 225.505 328.243C227.334 328.425 229.096 329.03 230.651 330.01C229.535 319.278 228.775 306.19 235.043 297.411C237.49 294.377 240.68 292.029 244.304 290.595C247.927 289.162 251.861 288.691 255.72 289.23C262.041 289.903 266.363 293.629 272.188 295.706C275.463 296.677 278.934 296.789 282.266 296.031C286.675 294.684 290.751 292.422 294.229 289.394C287.409 289.053 289.126 285.783 290.747 287.06C291.057 287.06 290.552 287.246 292.49 287.633C293.299 287.531 295.32 288.505 303.981 285.299C305.311 284.806 306.309 286.471 304.642 287.088C301.755 288.073 298.773 288.751 295.745 289.109C297.632 292.465 299.312 295.933 300.776 299.494C306.976 296.174 319.667 287.215 315.947 271.07" fill="#59679C"/>
<path d="M378.958 368.224C378.357 365.856 377.633 363.52 376.788 361.228C372.411 364.261 367.416 366.286 362.163 367.156C356.909 368.026 351.528 367.72 346.408 366.259C346.736 372.374 347.82 378.424 349.635 384.273C354.923 398.517 382.334 393.406 378.951 368.224" fill="#A76C6C"/>
<path d="M411.151 322.586C408.872 321.595 406.378 321.199 403.904 321.433C401.43 321.668 399.055 322.526 397.003 323.928C395.884 324.613 394.895 323.308 395.357 322.282C395.71 320.995 403.513 303.08 393.283 300.244C388.481 298.923 382.389 303.53 377.138 304.829C369.165 306.841 351.076 305.34 350.311 288.858C344.21 295.957 336.243 296.521 328.034 292.5C322.761 302.648 318.627 313.348 315.708 324.405C313.607 335.314 316.638 342.342 324.106 350.114C347.412 374.294 377.247 368.177 394.018 338.761C394.185 338.493 394.449 338.299 394.755 338.219C395.061 338.139 395.386 338.179 395.664 338.33C417.364 350.11 423.747 328.751 411.164 322.586M209.056 402.209C200.928 393.696 203.337 401.589 213.049 383.463C213.858 381.848 211.015 379.089 206.905 380.084C194.068 383.231 173.818 408.003 177.222 420.828C179.767 434.415 200.162 442.614 200.45 435.639C200.612 432.425 194.632 427.418 192.08 425.341C191.026 424.479 192.465 422.629 193.534 423.441C208.724 434.936 215.826 428.711 197.812 412.951C196.774 412.042 198.197 410.998 199.331 411.732C216.13 422.65 219.664 413.23 209.056 402.209Z" fill="#A76C6C"/>
<path d="M369.754 426.511C366.6 426.873 363.555 427.878 360.804 429.462C359.654 430.023 358.2 428.458 359.35 427.562C372.547 417.332 368.095 409.021 355.339 420.633C354.173 421.687 352.642 420.553 353.618 419.371C367.85 402.783 357.608 400.201 341.77 416.581C340.729 417.601 339.34 416.309 339.867 415.128C340.012 414.836 341.581 412.524 341.755 412.028C348.906 392.68 336.593 397.278 324.649 414.836C333.781 423.361 345.341 436.037 350.249 447.811C370.895 435.581 370.123 427.803 370.377 427.49L369.754 426.511ZM257.038 367.952C248.311 364.765 249.399 362.703 248.497 365.509C246.579 370.712 245.684 376.238 245.862 381.781C246.814 390.126 258.749 393.517 267.004 390.882C275.579 388.142 278.918 378.513 281.023 369.802C273.014 371.457 264.701 370.821 257.038 367.967" fill="#FFCEB6"/>
<path d="M299.641 300.443C298.292 297.116 296.746 293.872 295.009 290.73C294.278 291.292 293.115 292.501 292.35 293.012C288.77 295.61 284.628 297.327 280.26 298.025C277.135 298.356 273.978 297.917 271.062 296.748C265.522 294.609 260.556 290.665 254.455 290.281C250.729 290.133 247.033 291.005 243.766 292.803C240.499 294.602 237.785 297.258 235.917 300.486C226.667 316.336 235.694 336.232 230.647 332.726C213.597 320.735 204.241 354.234 227.237 348.536C236.819 346.171 232.541 344.484 237.074 350.774C260.615 383.61 326.93 374.44 299.641 300.443ZM421.502 395.721C419.558 379.136 385.582 359.876 386.642 369.774C386.927 372.167 392.284 377.214 395.322 380.134H395.338L395.356 380.169C397.604 381.855 395.738 381.746 392.306 387.24C385.294 398.468 389.99 403.871 401.631 392.767C402.796 391.682 404.281 393.278 403.339 394.475C390.821 410.121 396.866 415.264 408.593 402.699C409.663 401.549 411.306 403.242 410.298 404.407C408.324 406.705 404.098 412.849 405.909 414.978C409.415 419.111 422.695 405.483 421.511 395.721" fill="#FFCEB6"/>
<path d="M196.678 440.29C200.881 440.253 204.034 436.57 200.001 430.246C199.871 430.05 199.886 430.116 200.097 430.212C209.236 434.552 216.236 429.282 205.206 416.959C220.005 423.367 220.473 408.794 206.083 396.887C213.235 387.252 215.309 384.316 214.692 381.942C214.243 380.763 213.439 379.752 212.393 379.048C211.346 378.344 210.106 377.982 208.845 378.011C196.067 378.15 178.447 401.158 175.951 412.954C172.693 428.293 189.836 440.339 196.678 440.29ZM180.917 426.492C174.972 417.616 178.475 409.079 184.972 399.779C197.75 381.706 210.392 377.285 212.327 382.388C212.428 382.715 212.428 383.065 212.327 383.392C202.276 401.909 199.982 393.588 207.968 401.949C218.678 413.087 216.167 422.21 199.313 411.081C198.178 410.347 196.833 412.074 197.859 412.982C215.907 428.764 208.74 434.942 193.581 423.475C192.496 422.66 191.057 424.495 192.127 425.376C209.394 439.403 192.722 444.019 180.917 426.492ZM421.865 388.982C417.835 381.117 403.07 366.249 390.555 365.285C387.765 365.062 384.246 365.846 384.2 369.294C384.113 373.066 390.353 378.804 393.367 381.653C381.974 395.603 386.593 405.917 397.149 399.233C394.321 403.883 391.937 410.539 396.913 411.928C401.222 413.143 404.663 408.496 403.857 410.108C401.805 415.121 404.288 418.066 407.577 418.094C414.741 418.205 423.458 405.384 423.945 398.164C424.101 394.967 423.372 391.79 421.837 388.982M417.59 407.746C409.006 420.496 399.505 416.866 410.293 404.361C411.3 403.195 409.654 401.503 408.584 402.653C396.219 415.902 391.488 408.918 402.884 395.017C402.977 394.89 403.274 394.512 403.33 394.428C403.552 394.201 403.676 393.895 403.674 393.577C403.673 393.259 403.546 392.954 403.321 392.729C403.096 392.504 402.792 392.377 402.474 392.374C402.156 392.372 401.85 392.495 401.622 392.717C396.724 397.308 389.054 402.423 389.151 395.671C389.182 389.518 396.622 381.464 395.971 382.18C396.432 381.659 396.479 380.723 395.329 380.119V380.088C392.139 377.231 389.288 374.017 386.832 370.509C385.189 363.94 399.356 368.751 408.758 377.199C420.098 387.429 425.851 395.709 417.602 407.746" fill="black"/>
<path d="M416.869 471.314C415.117 471.048 404.906 499.159 375.193 507.708C351.685 514.454 312.883 507.578 296.453 485.463C312.053 481.42 326.604 474.075 339.121 463.924C355.074 471.38 372.992 462.597 383.451 449.918C386.446 446.312 388.899 442.288 390.733 437.974C390.817 437.665 390.776 437.335 390.617 437.056C390.458 436.778 390.196 436.574 389.887 436.489C389.578 436.413 389.251 436.458 388.975 436.616C388.699 436.773 388.493 437.031 388.402 437.335C385.249 444.569 380.328 450.893 374.092 455.728C364.631 463.199 352.488 466.978 341.232 462.238C341.359 462.142 341.489 462.045 341.617 461.928C352.776 452.457 351.704 452.191 351.118 450.148C375.977 435.373 376.64 422.124 365.809 425.038C373.971 416.165 368.032 409.82 359.919 414.656C366.717 403.781 360.263 397.5 343.855 411.463C348.96 396.152 341.803 388.808 322.744 413.413C321.975 413.372 322.124 413.682 318.751 416.286C314.979 404.325 309.173 393.104 301.586 383.116C307.145 377.545 313.778 373.161 321.082 370.23C328.386 367.299 336.21 365.883 344.078 366.066C344.54 372.914 345.801 385.782 350.768 390.516C358.462 397.789 374.145 394.788 379.257 381.836C381.975 374.886 380.791 366.993 378.947 359.752C385.569 354.543 391.19 348.175 395.535 340.956C397.152 341.744 398.829 342.4 400.551 342.919C412.641 346.639 419.027 341.08 419.888 333.309C420.93 323.903 410.43 315.58 398.715 320.406C400.885 314.206 402.435 305.812 398.266 300.783C389.942 290.801 380.546 307.724 362.672 301.741C354.497 298.992 352.014 293.864 352.851 284.974C352.845 284.711 352.755 284.458 352.594 284.251C352.433 284.044 352.209 283.895 351.956 283.826C351.704 283.756 351.435 283.77 351.191 283.865C350.947 283.96 350.739 284.131 350.6 284.353C349.804 285.926 348.733 287.343 347.438 288.539C336.877 298.911 328.528 286.964 326.2 290.95C319.343 304.197 308.868 326.51 314.482 340.274C317.657 348.155 326.882 358.217 339.375 363.782C324.571 364.628 310.587 370.858 300.058 381.3C295.952 376.171 290.853 371.924 285.066 368.813C289.402 367.399 293.368 365.035 296.674 361.894C299.98 358.753 302.544 354.914 304.178 350.656C310.028 335.035 306.773 315.291 300.811 299.621C296.208 287.698 295.262 289.701 298.065 289.162C300.316 288.688 302.525 288.037 304.674 287.215C304.975 287.123 305.229 286.918 305.381 286.642C305.533 286.366 305.572 286.042 305.488 285.739C305.405 285.435 305.207 285.176 304.935 285.016C304.664 284.856 304.341 284.809 304.035 284.884C295.423 288.074 293.371 287.035 292.522 287.134H292.491C291.901 287.07 291.33 286.885 290.814 286.592H290.783C289.149 285.308 286.443 289.27 293.225 289.608C289.801 292.415 285.807 294.443 281.52 295.551C278.459 296.159 275.289 295.898 272.369 294.797C266.541 292.723 261.624 288.762 255.3 288.092C251.394 287.794 247.477 288.512 243.932 290.177C240.386 291.842 237.331 294.397 235.066 297.594C228.798 306.376 228.575 318.757 229.669 329.483C228.04 328.569 226.222 328.04 224.357 327.936C222.491 327.832 220.626 328.155 218.905 328.883C217.184 329.61 215.651 330.721 214.426 332.131C213.2 333.542 212.312 335.214 211.832 337.019C208.007 348.086 218.72 356.196 233.616 348.979C237.144 354.65 241.855 359.493 247.426 363.177C247.203 363.27 246.995 363.366 246.772 363.462C244.851 368.589 243.689 373.968 243.325 379.43C243.089 391.21 255.251 395.516 264.737 394.059C275.146 392.472 279.871 383.972 282.735 373.364C283.547 370.382 283.026 370.496 284.186 371.113C286.216 372.177 288.146 373.422 289.952 374.833C303.087 385.107 311.491 402.2 316.714 417.902C294.704 433.175 250.374 435.764 240.991 412.297C240.129 410.57 238.2 411.543 238.628 412.839C246.515 436.492 296.524 438.38 320.58 417.998C322.992 416.1 322.378 416.017 323.215 416.847C332.515 425.506 345.209 439.357 348.945 451.481C348.014 452.701 346.984 453.842 345.863 454.891C295.464 504.822 209.932 490.011 189.261 444.909C189.121 444.599 189.078 444.419 188.973 444.189C188.449 442.726 186.158 443.414 186.641 444.828C197.256 475.019 251.639 497.308 293.951 486.173C315.986 517.269 390.101 530.162 417.914 473.236C417.998 473.046 418.037 472.839 418.028 472.63C418.019 472.422 417.962 472.219 417.862 472.037C417.761 471.854 417.62 471.697 417.449 471.579C417.278 471.46 417.081 471.382 416.875 471.352M377.539 379.161C373.702 393.241 353.927 397.141 349.435 383.665C347.773 377.991 346.766 372.146 346.434 366.243C351.556 367.693 356.935 367.994 362.186 367.124C367.438 366.254 372.433 364.236 376.814 361.212C378.552 367.04 378.799 373.212 377.533 379.161M324.102 350.114C310.731 336.22 314.253 325.977 321.02 308.022C322.377 307.526 323.849 307.435 325.257 307.758C326.666 308.08 327.95 308.804 328.956 309.842C332.103 315.322 330.147 317.778 332.248 317.778C332.565 317.775 332.868 317.648 333.092 317.425C333.316 317.201 333.442 316.898 333.445 316.581C332.84 307.665 328.094 304.435 322.059 305.372C323.345 302.272 323.057 302.938 323.401 302.736C324.818 301.551 326.567 300.833 328.408 300.682C330.249 300.53 332.092 300.952 333.684 301.89C333.82 301.97 333.97 302.022 334.127 302.044C334.283 302.065 334.442 302.056 334.594 302.016C334.747 301.976 334.89 301.906 335.016 301.81C335.142 301.715 335.247 301.596 335.327 301.459C336.567 299.289 330.367 296.856 324.74 299.255C325.772 296.999 326.848 294.764 327.967 292.55C337.267 297.101 344.859 295.166 350.244 288.907C350.696 298.728 356.49 303.549 366.308 305.133C369.875 305.775 373.536 305.687 377.068 304.875C382.459 303.515 388.389 298.964 393.213 300.294C403.511 303.143 395.197 322.952 395.448 321.994C394.67 323.544 395.928 324.601 396.933 323.975C407.178 317.635 417.625 323.975 417.436 332.345C417.21 343.331 405.253 343.61 395.578 338.365C395.302 338.209 394.976 338.167 394.67 338.248C394.363 338.328 394.1 338.525 393.935 338.796C377.195 368.187 347.624 374.446 324.102 350.117M280.702 371.212C278.721 379.344 274.982 388.346 266.987 390.9C258.837 393.501 246.865 390.256 245.845 381.799C245.667 376.256 246.56 370.731 248.477 365.527C249.382 362.737 248.316 364.792 257.021 367.97C264.684 370.822 272.994 371.467 281.005 369.83C280.894 370.276 280.816 370.76 280.695 371.219M278.683 367.809C270.811 368.937 262.779 367.881 255.466 364.755C248.153 361.629 241.839 356.553 237.215 350.083C232.692 343.805 236.796 346.192 227.233 348.567C204.2 354.274 213.546 320.763 230.643 332.757C235.773 336.384 226.585 316.426 235.913 300.517C237.779 297.288 240.493 294.63 243.76 292.832C247.027 291.033 250.724 290.162 254.451 290.312C260.552 290.696 265.533 294.652 271.057 296.778C273.971 297.956 277.131 298.396 280.255 298.059C284.624 297.364 288.767 295.645 292.345 293.043C293.111 292.516 293.846 291.958 294.58 291.4C309.15 319.201 312.064 362.306 278.69 367.809M341.93 433.82C336.708 427.002 330.917 420.64 324.619 414.802C343.176 390.389 347.212 400.324 339.918 414.898C339.202 416.33 340.708 417.557 341.737 416.544C357.278 401.267 367.691 402.33 353.586 419.334C353.375 419.563 353.262 419.865 353.269 420.177C353.276 420.488 353.403 420.785 353.623 421.005C353.843 421.225 354.139 421.352 354.451 421.358C354.762 421.365 355.064 421.252 355.294 421.042C368.025 409.454 372.499 417.281 359.324 427.527C358.174 428.42 359.634 429.97 360.774 429.427C363.493 427.806 366.599 426.949 369.764 426.947C369.91 427.022 369.972 427.487 369.972 427.651C369.972 434.657 356.332 444.131 350.234 447.754C348.092 442.776 345.306 438.1 341.948 433.845" fill="black"/>
<path d="M362.288 328.11C362.416 327.981 362.555 327.864 362.704 327.76C362.704 327.76 362.719 327.76 362.75 327.729C367.843 324.036 374.744 326.594 375.77 330.568C376.22 332.837 378.331 332.233 378.25 330.903C377.956 324.263 366.321 320.571 360.605 326.417C359.47 327.487 361.178 329.207 362.282 328.11M371.867 313.93C372.041 313.862 372.562 313.76 372.571 313.754C374.71 313.999 378.269 313.357 382.491 321.578C383.192 322.97 385.281 321.739 384.565 320.366C378.591 308.67 369.685 310.446 370.37 313.084C370.462 313.392 370.669 313.652 370.949 313.81C371.229 313.968 371.559 314.011 371.87 313.93M365.274 344.27C372.732 340.287 368.513 338.69 367.558 339.719C360.521 347.159 341.757 346.307 335.173 335.454C335.093 335.317 334.987 335.198 334.861 335.103C334.735 335.007 334.592 334.937 334.439 334.897C334.13 334.817 333.802 334.862 333.526 335.023C333.251 335.184 333.051 335.448 332.97 335.757C332.889 336.065 332.934 336.393 333.096 336.669C335.47 340.295 338.866 343.135 342.854 344.831C346.401 346.399 350.25 347.162 354.127 347.065C358.003 346.968 361.81 346.014 365.274 344.27ZM397.69 331.114C397.964 331.266 398.286 331.308 398.589 331.23C398.893 331.152 399.155 330.961 399.321 330.695C400.488 329.405 402.046 328.533 403.757 328.215C406.683 328.215 405.831 325.735 404.523 325.772C400.415 325.797 395.275 329.784 397.703 331.108M267.45 327.921C265.897 326.921 264.116 326.33 262.273 326.205C260.429 326.079 258.585 326.422 256.91 327.202C254.294 328.814 252.277 331.236 251.163 334.099C250.62 335.55 252.951 336.192 253.494 334.738C256.46 328.81 260.438 326.842 266.238 329.995C267.577 330.745 268.792 328.655 267.434 327.921M287.634 321.997C290.328 321.997 286.723 315.58 292.65 312.315H292.681C296.68 311.261 298.069 312.855 298.54 311.168C299.442 307.916 285.591 307.687 286.45 320.812C286.464 321.124 286.595 321.419 286.816 321.639C287.038 321.858 287.335 321.986 287.646 321.997M290.508 347.367C290.943 346.849 291.333 346.294 291.673 345.709C292.408 344.335 290.334 343.12 289.599 344.493C289.42 344.834 288.669 345.876 288.896 345.563C284.178 350.644 278.281 353.152 267.723 349.14C266.269 348.582 265.646 350.913 267.081 351.471C278.018 355.65 286.059 352.876 290.508 347.367ZM253.732 314.665C255.431 313.85 257.295 313.44 259.179 313.469C260.729 313.546 260.729 311.137 259.179 311.057C257.195 311.028 255.226 311.412 253.398 312.184C251.569 312.956 249.921 314.1 248.559 315.542C242.603 322.099 247.009 323.761 247.777 321.597C248.235 320.092 249.001 318.698 250.026 317.505C251.051 316.312 252.313 315.345 253.732 314.665ZM228.071 336.223C224.608 334.012 218.892 335.42 220.265 337.518C221.285 339.112 222.348 336.771 225.628 337.707C226.511 337.918 227.798 339.171 228.486 337.853C228.567 337.719 228.62 337.57 228.643 337.415C228.666 337.261 228.658 337.103 228.62 336.951C228.581 336.799 228.513 336.657 228.418 336.532C228.324 336.407 228.206 336.301 228.071 336.223Z" fill="black"/>
</svg>
