<svg width="600" height="600" viewBox="0 0 600 600" fill="none" xmlns="http://www.w3.org/2000/svg">
<path d="M155.964 307.947C86.3641 314.472 55.8601 306.468 55.8601 306.468C55.8601 306.468 55.8871 308.478 55.9591 312.084C62.5021 320.085 62.6821 331.674 60.1591 331.782C58.74 331.679 57.3898 331.129 56.3011 330.213C57.2011 377.076 59.3221 478.014 60.9061 490.686C62.2231 501.21 69.9061 508.476 80.7061 507.72C91.6471 506.946 93.2341 499.02 95.4301 489.678C102.549 459.294 108.381 396.243 110.661 366.612L130.503 480.645C132.396 491.481 137.19 509.901 151.23 507.231C158.007 505.932 159.159 493.464 160.278 487.713C164.496 466.065 163.539 443.052 163.017 421.134C162.153 385.29 158.82 337.662 155.964 307.947ZM81.7621 333.396C78.4981 333.543 72.7231 327.771 70.6621 323.031C69.5875 319.322 69.3285 315.423 69.9031 311.604C69.9499 311.198 70.101 310.811 70.3417 310.481C70.5823 310.151 70.9044 309.889 71.2765 309.72C71.6486 309.551 72.0581 309.481 72.4651 309.518C72.8721 309.554 73.2628 309.695 73.5991 309.927C83.7421 317.037 84.8461 333.255 81.7621 333.396ZM542.352 331.05C510.552 336.18 472.614 335.568 440.754 333.069C438.339 359.928 432.654 432.237 436.824 475.98C437.243 480.211 439.201 484.14 442.325 487.023C445.45 489.906 449.524 491.541 453.774 491.619C458.025 491.697 462.156 490.211 465.384 487.445C468.612 484.678 470.712 480.823 471.285 476.61L491.49 355.62L505.35 478.665C505.834 482.33 507.638 485.693 510.423 488.123C513.208 490.553 516.785 491.884 520.481 491.866C524.178 491.848 527.741 490.483 530.503 488.027C533.265 485.57 535.036 482.19 535.485 478.521C539.127 449.016 546.603 378.672 542.352 331.05Z" fill="#7D4AB4"/>
<path d="M41.2414 283.92C42.3154 310.596 53.3644 308.055 58.6804 285.993C52.8136 285.875 46.9726 285.18 41.2414 283.92ZM77.5114 252.3C79.9387 251.444 82.4545 250.864 85.0114 250.569C83.2089 244.412 80.5854 238.525 77.2114 233.067C55.9114 238.986 36.5914 238.062 26.2384 234.867C23.6644 239.334 23.1994 244.467 27.0154 248.295C34.9684 247.095 66.3154 252.021 71.8384 253.095C75.3334 253.8 74.5714 253.365 77.5114 252.3ZM71.5144 285.6C69.929 285.803 68.3335 285.917 66.7354 285.942C66.556 290.931 67.1223 295.918 68.4154 300.738C69.6484 304.32 71.1664 304.515 70.8664 304.416C73.1494 305.283 76.2664 302.151 77.8414 300.216C80.0519 297.425 81.8447 294.326 83.1634 291.018C78.4234 289.152 71.8294 285.723 71.5144 285.6Z" fill="#FFD35C"/>
<path d="M46.6942 180.798C50.6709 180.526 54.6662 180.836 58.5532 181.719C61.4905 181.262 64.3039 180.211 66.8216 178.631C69.3393 177.051 71.5086 174.974 73.197 172.527C74.8854 170.08 76.0574 167.315 76.6417 164.401C77.226 161.486 77.2101 158.483 76.5952 155.574C68.8102 152.691 62.7952 142.491 61.1422 139.443C60.9874 139.393 60.8302 139.351 60.6712 139.317C60.2212 151.647 40.5952 159.45 31.6912 162.369C32.1721 166.553 33.8404 170.511 36.4989 173.777C39.1575 177.042 42.6952 179.479 46.6942 180.798ZM121.052 199.281C118.604 198.483 115.983 198.379 113.48 198.981C112.616 199.215 111.824 198.045 112.562 197.397C120.398 190.56 117.095 188.448 108.488 195.36C109.965 197.67 110.895 200.287 111.207 203.01C111.519 205.734 111.205 208.493 110.288 211.077C112.355 210.726 122.318 208.836 122.318 206.742C122.3 205.842 121.166 205.263 120.371 205.047C118.98 204.744 117.539 204.757 116.153 205.083C114.953 205.407 114.476 203.511 115.649 203.262C117.006 202.883 118.274 202.24 119.381 201.369C119.762 201.111 121.34 199.893 121.052 199.281ZM389.702 332.61C389.666 336.018 389.177 348.453 383.771 341.262C382.909 340.068 382.33 338.693 382.079 337.242C386.654 332.946 388.472 324.207 385.898 323.817C383.819 323.499 382.076 326.559 381.212 328.476C379.728 329.949 377.927 331.064 375.947 331.735C373.966 332.406 371.859 332.616 369.785 332.349C361.085 331.149 338.549 300.735 320.852 299.223C333.995 309.492 340.454 327.891 345.056 343.938C351.625 348.788 359.569 351.415 367.733 351.438C383.699 351.258 390.857 347.49 394.223 343.128C393.996 343.128 393.771 343.086 393.56 343.002C390.161 341.577 389.747 334.953 389.702 332.61ZM283.298 298.14C265.691 300.27 243.575 330 234.977 331.2C227.75 332.208 226.037 327.36 225.623 324.873C225.323 318.795 222.071 316.236 218.522 316.5C211.079 316.827 214.97 321.495 218.072 323.601C219.287 324.48 220.404 325.485 221.405 326.601C222.06 330.121 222.211 333.716 221.855 337.278C218.972 358.458 212.087 334.161 212.087 334.161C212.301 337.573 212.162 340.999 211.673 344.382C215.351 348.633 222.416 352.221 236.528 352.383C242.459 352.405 248.296 350.911 253.487 348.042C259.817 327.372 264.56 308.664 283.298 298.14ZM269.06 449.793C264.632 503.016 269.414 504.537 267.473 511.398C274.112 513.038 281.032 513.179 287.732 511.809C287.864 511.791 287.997 511.791 288.128 511.809L293.897 452.007C285.587 451.681 277.297 450.942 269.06 449.793ZM332.54 450.189C324.309 451.408 316.005 452.077 307.685 452.19C313.985 517.527 313.295 512.268 313.904 512.442C320.563 514.094 327.525 514.088 334.181 512.424C332.168 505.407 337.076 504.843 332.54 450.189Z" fill="#FFCEB6"/>
<path d="M573.422 216.117C571.449 209.256 568.551 202.696 564.809 196.617C556.678 182.947 544.548 172.102 530.057 165.546C487.601 146.559 409.388 165.48 400.361 210C400.298 210.414 400.1 211.008 400.58 211.407C427.484 233.949 425.219 230.715 425.018 232.548C423.218 255.786 420.518 308.148 425.594 330.849C425.633 331.072 425.751 331.273 425.927 331.416C426.103 331.558 426.325 331.632 426.551 331.623C427.331 331.623 429.314 332.175 440.753 333.048C475.949 335.808 519.182 336.3 553.553 328.956C553.783 328.896 553.986 328.76 554.13 328.57C554.274 328.38 554.349 328.147 554.345 327.909C553.055 300.96 549.671 259.464 545.12 229.14C554.745 226.134 564.047 222.18 572.891 217.335C573.107 217.225 573.277 217.043 573.374 216.821C573.471 216.599 573.488 216.35 573.422 216.117Z" fill="#FFD35C"/>
<path d="M310.421 289.596C314.982 288.182 319.163 285.753 322.65 282.491C326.137 279.23 328.839 275.221 330.554 270.765C336.824 271.335 340.898 267.555 340.898 263.844C340.898 260.076 336.998 256.995 332.105 256.869C330.464 242.646 317.15 230.076 300.005 230.076C292.306 229.904 284.807 232.535 278.901 237.478C272.996 242.421 269.086 249.34 267.899 256.95C262.547 255.489 256.037 258.639 256.037 263.61C256.037 268.887 263.339 272.139 269.159 269.88C270.803 274.579 273.535 278.823 277.133 282.264C280.73 285.706 285.091 288.247 289.859 289.68C289.1 294.999 290.3 299.685 295.7 299.685C304.772 299.673 311.216 298.743 310.421 289.596Z" fill="#FFCEB6"/>
<path d="M143.12 184.026C142.973 183.947 142.848 183.834 142.755 183.697C142.662 183.559 142.604 183.4 142.586 183.235C142.568 183.069 142.591 182.902 142.653 182.748C142.715 182.593 142.813 182.456 142.94 182.349C136.2 177.998 128.883 174.616 121.202 172.302C118.532 180.735 112.838 189.297 100.745 185.439C94.9399 183.585 94.4449 175.779 95.4079 168.408C88.2687 167.961 81.1075 168.804 74.2669 170.895C72.6438 173.641 70.4599 176.014 67.8577 177.859C65.2555 179.704 62.2934 180.979 59.1649 181.602C59.1109 181.674 59.0659 181.755 59.0299 181.809C68.1987 183.537 76.5935 188.101 83.0299 194.856C90.6169 192.78 101.975 189.141 107.234 195.174C117.911 186.396 121.688 190.74 113.255 198.075C115.671 197.544 118.174 197.544 120.59 198.075C124.592 198.957 119.474 203.301 115.922 204.183C115.922 204.183 122.357 202.743 123.257 206.511C124.016 209.772 112.193 211.773 108.893 212.277C106.916 216.81 103.913 218.031 99.3409 220.767C93.195 224.912 85.9726 227.174 78.5599 227.274C78.5706 227.296 78.5768 227.321 78.5779 227.346L78.8479 231.453C82.566 237.318 85.4079 243.694 87.2839 250.38C91.5889 250.14 98.3839 250.44 101.54 253.38C104.084 255.747 101.714 258.984 97.9399 260.319C102.44 261.909 109.376 266.196 111.44 270.681C113.126 274.308 110.795 277.704 103.04 275.946C105.311 277.599 109.061 280.668 108.338 283.299C107.618 285.984 103.67 286.218 101.453 285.999C100.629 285.912 99.8109 285.78 99.0019 285.603C100.841 287.424 102.302 289.857 100.298 292.056C97.1899 295.473 89.5399 293.304 85.1779 291.756C82.7779 297.489 76.4779 308.184 70.5619 306.549C64.8049 304.95 64.6879 291.549 64.5619 285.951C62.2789 286.02 62.3569 285.969 60.8839 285.969C59.928 291.109 58.0411 296.032 55.3159 300.495C55.6579 304.227 55.8739 306.39 55.8739 306.39C55.8739 306.39 86.3869 314.391 155.978 307.869C151.601 247.176 152.486 253.629 150.896 250.977C150.755 250.729 150.717 250.435 150.791 250.16C150.864 249.884 151.043 249.648 151.289 249.504C151.535 249.359 151.828 249.317 152.105 249.387C152.382 249.456 152.62 249.632 152.768 249.876C153.239 250.671 160.052 262.35 162.989 267.396C163.619 266.694 178.382 250.275 185.102 242.775C178.463 222.096 163.139 194.514 143.12 184.026ZM44.9269 137.895C44.2325 138.065 43.5593 138.313 42.9199 138.633C41.3805 139.405 40.0344 140.513 38.9809 141.876C38.8881 142.031 38.8361 142.208 38.8298 142.389C38.8234 142.57 38.8629 142.75 38.9446 142.912C39.0263 143.074 39.1475 143.213 39.297 143.315C39.4465 143.418 39.6195 143.481 39.7999 143.499C40.8529 143.625 40.8289 142.227 43.6999 140.706C45.0079 139.98 45.5239 140.079 45.7459 139.86C45.9764 139.732 46.1518 139.524 46.2384 139.275C46.3251 139.026 46.3169 138.754 46.2156 138.511C46.1142 138.268 45.9267 138.07 45.6889 137.957C45.4512 137.843 45.1798 137.821 44.9269 137.895ZM63.4309 140.256C69.7609 142.608 70.1119 146.091 71.6389 144.564C71.8339 144.353 71.9422 144.076 71.9422 143.788C71.9422 143.501 71.8339 143.224 71.6389 143.013C69.4685 140.868 66.8627 139.215 63.9979 138.165C63.7206 138.088 63.4243 138.125 63.174 138.267C62.9238 138.408 62.7399 138.644 62.6629 138.921C62.6008 139.199 62.6452 139.49 62.7873 139.738C62.9295 139.985 63.1591 140.17 63.4309 140.256Z" fill="#DCBEFF"/>
<path d="M76.5939 155.574C75.7565 151.973 73.9993 148.65 71.4939 145.932C71.9799 145.968 72.4869 146.004 72.9729 146.004C75.6729 146.052 76.5519 143.883 75.2259 142.185C77.7039 140.559 75.5799 137.346 72.6309 136.236C75.2829 133.053 66.9639 128.583 64.1499 138.228C64.8416 138.477 65.516 138.772 66.1689 139.11C66.5493 137.516 67.3927 136.07 68.5929 134.955C68.9239 134.719 69.3193 134.591 69.7256 134.588C70.1318 134.584 70.5292 134.706 70.8639 134.937C70.5473 135.326 70.1693 135.662 69.7449 135.93C69.5457 136.053 69.3917 136.238 69.3056 136.456C69.2194 136.674 69.2058 136.914 69.2667 137.141C69.3276 137.367 69.4598 137.568 69.6437 137.714C69.8276 137.859 70.0535 137.941 70.2879 137.949C71.0866 137.967 71.8657 138.199 72.5439 138.621C73.2221 139.043 73.7743 139.64 74.1429 140.349C74.1609 140.295 73.8729 140.475 73.8729 140.475C73.2249 140.745 72.2679 140.421 71.5839 140.421C71.2987 140.425 71.0262 140.54 70.8245 140.741C70.6228 140.943 70.5078 141.215 70.5039 141.501C70.5039 142.869 72.0039 142.305 73.2429 143.25C73.4218 143.368 73.565 143.533 73.6569 143.727C73.6749 143.799 73.7469 143.655 73.6569 143.727C73.2969 143.997 72.3789 143.79 71.9799 143.754C71.9814 143.97 71.9188 144.182 71.8001 144.363C71.6815 144.544 71.5119 144.686 71.3129 144.771C71.1138 144.856 70.8941 144.88 70.6813 144.841C70.4685 144.801 70.2722 144.699 70.1169 144.549C67.646 142.062 64.547 140.292 61.1499 139.428C62.7609 142.5 68.8089 152.7 76.5939 155.574Z" fill="#FF8684"/>
<path d="M331.854 255.471C332.014 249.538 330.264 243.709 326.862 238.845C336.387 240.945 338.235 243.543 341.499 243.423C345.075 243.276 347.199 239.727 343.968 236.265C353.13 236.265 348.852 222.867 335.802 225.291C336.243 224.751 336.538 224.105 336.657 223.417C336.776 222.73 336.716 222.023 336.482 221.365C336.249 220.707 335.849 220.121 335.323 219.662C334.796 219.204 334.16 218.889 333.477 218.748C332.107 218.83 330.82 219.429 329.877 220.425C326.049 223.536 323.299 227.774 322.017 232.536C317.921 228.084 312.905 224.578 307.317 222.261C303.369 220.647 292.866 217.74 288.933 218.334C287.976 218.442 287.06 218.776 286.259 219.31C285.458 219.843 284.796 220.56 284.328 221.4C283.901 222.264 283.827 223.259 284.119 224.177C284.412 225.095 285.049 225.863 285.897 226.32C281.183 225.132 276.2 225.676 271.854 227.853C268.299 224.253 261.396 219.285 256.41 219.921C251.061 220.596 248.847 227.064 254.697 229.401C245.412 231.672 243.834 241.479 250.065 242.217C251.544 242.353 253.021 241.935 254.211 241.044C253.797 246.399 259.53 247.905 264.537 246.444C264.065 250.135 265.04 253.864 267.258 256.851C267.474 256.89 267.693 256.908 267.891 256.962C269.221 249.553 273.071 242.831 278.789 237.935C284.508 233.039 291.742 230.269 299.268 230.095C306.794 229.921 314.148 232.353 320.087 236.98C326.025 241.607 330.182 248.143 331.854 255.483V255.471ZM331.278 222.027C331.929 221.505 332.991 220.443 333.819 221.145C335.802 222.786 333.153 225.309 331.965 226.425C331.802 226.598 331.699 226.818 331.671 227.053C331.644 227.289 331.694 227.527 331.813 227.732C331.932 227.937 332.114 228.098 332.333 228.19C332.551 228.283 332.793 228.303 333.024 228.246C336.777 226.983 341.424 226.146 344.706 228.948C345.663 229.761 347.607 232.176 346.383 233.448C345.399 234.462 341.445 234.096 340.056 233.826C339.918 233.789 339.774 233.778 339.632 233.796C339.49 233.814 339.353 233.86 339.229 233.93C339.104 234.001 338.995 234.096 338.908 234.208C338.82 234.321 338.755 234.45 338.718 234.588C338.68 234.726 338.669 234.87 338.687 235.012C338.705 235.154 338.751 235.291 338.821 235.415C338.892 235.539 338.987 235.649 339.1 235.736C339.213 235.824 339.342 235.889 339.48 235.926C341.517 236.58 343.86 238.758 343.317 240.126C341.937 243.609 337.2 238.431 325.116 236.25C324.681 235.65 324.216 235.05 323.763 234.504C324.733 229.595 327.392 225.181 331.278 222.027ZM269.103 238.8C267.28 240.023 265.897 241.798 265.158 243.864C262.725 244.899 258.495 245.295 256.884 243.396C255.684 241.989 256.506 239.862 257.01 238.347C257.37 237.285 255.927 236.565 255.189 237.285C253.947 238.485 252.468 240.06 250.593 240.024C245.724 239.943 249.63 231.075 257.46 231.156C257.65 231.154 257.837 231.101 258.002 231.004C258.166 230.908 258.302 230.769 258.397 230.604C258.492 230.438 258.542 230.251 258.542 230.06C258.542 229.869 258.493 229.681 258.399 229.515C257.043 227.394 254.442 227.469 253.641 226.092C253.38 225.567 253.306 224.969 253.431 224.396C253.555 223.823 253.87 223.31 254.325 222.939C258.108 219.639 266.256 225.396 269.862 228.903C262.14 233.94 266.043 239.496 269.103 238.8ZM570.036 218.964C562.082 223.024 553.805 226.417 545.292 229.11C553.145 257.11 558.305 285.797 560.7 314.778C556.338 320.739 553.92 326.13 561.258 325.032C561.312 326.331 561.35 327.645 561.384 328.932C561.384 328.932 559.782 341.079 562.665 341.403C565.206 341.703 569.226 336.753 570.147 331.617C569.73 336.645 569.064 349.062 572.901 347.781C577.701 346.179 577.701 334.356 577.701 334.356C577.701 334.356 579.309 348.108 582.171 348.108C585.033 348.108 585.057 336.915 585.057 332.754C585.03 328.854 583.014 262.401 570.036 218.964ZM402.603 213.069C395.753 225.921 381.408 259.896 387.357 311.334C385.3 316.057 383.706 320.968 382.596 325.998C384.146 323.721 386.571 322.734 387.012 325.275C387.043 327.499 386.623 329.705 385.778 331.762C384.933 333.819 383.68 335.683 382.095 337.242C382.366 338.687 382.943 340.058 383.787 341.262C389.187 348.462 389.682 336.018 389.717 332.61C389.754 334.953 390.168 341.577 393.573 343.038C393.785 343.122 394.011 343.164 394.239 343.164C397.881 343.2 399.216 330.006 399.216 330.006C399.216 330.006 398.616 342.156 403.956 341.847C409.296 341.538 407.217 324.366 407.217 324.366C409.028 326.676 410.43 329.278 411.362 332.061C412.262 335.613 418.176 327.627 405.143 312.507C405.143 312.507 409.164 251.586 425.061 232.554C425.079 232.212 425.097 231.888 425.133 231.543L402.603 213.069Z" fill="#FF8684"/>
<path d="M104.677 96.4232C104.677 96.4232 104.062 120.969 87.7514 121.422C83.5184 117.522 77.5514 115.542 74.1884 120.501C69.3044 127.674 76.1714 141.696 89.4374 139.551C90.7491 145.343 94.0693 150.484 98.8094 154.062C95.6414 163.062 91.3094 182.466 100.729 185.439C112.822 189.297 118.516 180.735 121.186 172.302C122.537 167.87 123.333 163.287 123.556 158.658C123.556 158.658 147.238 157.233 146.176 130.722C144.925 105.831 126.475 93.7202 104.677 96.4232ZM221.401 326.592C220.401 325.476 219.284 324.47 218.068 323.592C214.948 321.492 211.075 316.818 218.518 316.491C218.734 316.473 218.932 316.509 219.118 316.509C211.366 288.705 190.531 250.65 186.901 244.089C186.688 244.368 163.6 270.078 163.273 270.24L191.677 326.601C189.895 334.602 189.895 343.488 193.012 348.372C196.129 353.256 200.101 333.27 200.101 333.27C200.101 333.27 199.219 349.707 206.32 351.042C212.098 352.113 212.503 339.942 212.086 334.152C212.086 334.152 218.986 358.431 221.854 337.269C222.219 333.707 222.066 330.111 221.401 326.592ZM102.001 264.708C93.5504 259.692 91.3994 262.539 91.5494 260.208C91.5307 260.068 91.5442 259.926 91.5889 259.792C91.6335 259.657 91.7081 259.535 91.807 259.434C91.9059 259.333 92.0265 259.256 92.1597 259.209C92.2928 259.162 92.435 259.145 92.5754 259.161C95.3309 259.21 98.0077 258.242 100.093 256.44C100.293 256.21 100.408 255.917 100.417 255.612C99.7214 252.99 88.0874 250.659 77.3744 254.637C72.7754 256.398 75.9014 255.489 62.8814 253.809C42.9914 251.292 24.4394 246.348 18.9044 255.072C17.5555 257.524 16.9817 260.328 17.2586 263.113C17.5355 265.898 18.6501 268.534 20.4554 270.672C30.1124 282.645 54.3404 284.61 69.8384 283.572C70.8122 283.351 71.8297 283.427 72.7604 283.788C78.1604 286.662 88.3244 291.396 94.4414 291.702C95.8484 291.774 99.6854 291.504 98.9114 289.179C98.1224 286.779 93.2354 283.989 91.0184 282.78C89.7734 282.093 90.8744 280.311 92.1164 280.905C95.298 282.603 98.7963 283.624 102.391 283.905C103.605 284.018 104.823 283.74 105.868 283.113C106.246 282.813 106.246 282.699 106.066 282.213C105.013 279.384 97.8854 275.07 95.2334 273.618C94.1714 273.039 94.9094 271.167 96.0644 271.635C102.364 274.146 112.69 276.36 108.841 270.66C107.037 268.188 104.7 266.153 102.001 264.708Z" fill="#A76C6C"/>
<path d="M32.5198 140.832C32.5198 144.132 36.5548 143.982 39.8008 143.499C39.6215 143.479 39.45 143.415 39.3019 143.312C39.1538 143.209 39.0336 143.07 38.9523 142.909C38.871 142.748 38.8312 142.569 38.8363 142.389C38.8415 142.209 38.8915 142.033 38.9818 141.876C39.1258 141.696 39.2818 141.552 39.4318 141.372C35.5588 141.948 33.0538 141.75 35.9458 139.083C36.8278 138.255 35.6728 136.683 34.6288 137.373C32.8288 138.573 28.1728 140.352 27.0238 139.029C26.8102 138.678 26.7111 138.269 26.7401 137.859C26.7691 137.449 26.9249 137.058 27.1858 136.74C28.0485 135.877 29.1934 135.353 30.4108 135.264C34.9438 134.478 40.2808 134.847 42.9568 138.633C43.5882 138.324 44.2484 138.077 44.9278 137.895C45.2278 137.895 42.2278 132.48 33.5098 132.795C32.1005 132.665 30.6793 132.815 29.328 133.236C27.9766 133.656 26.7215 134.34 25.6348 135.246C23.5708 137.613 23.8018 143.739 32.5198 140.832Z" fill="#FF8684"/>
<path d="M43.6849 140.7C40.9999 142.041 40.8799 143.613 39.7999 143.493C36.9731 145.704 34.7492 148.592 33.3335 151.891C31.9178 155.189 31.3559 158.79 31.6999 162.363C40.6219 159.444 60.2479 151.623 60.6799 139.311C55.7421 137.935 50.4905 138.208 45.7219 140.088C45.7076 140.022 45.7016 139.954 45.7039 139.887C45.0017 140.079 44.3242 140.352 43.6849 140.7ZM267.779 513.711C266.195 517.191 263.357 519.946 259.832 521.427C256.14 523.251 252.783 525.685 249.902 528.627C248.585 530.127 247.523 532.305 249.395 533.709C255.179 538.119 278.828 529.653 285.551 526.932C285.965 522.678 286.382 518.436 286.778 514.182C280.476 515.279 274.019 515.119 267.779 513.711ZM348.977 526.932C341.747 521.196 337.229 521.646 333.926 514.728C327.644 516.171 321.12 516.209 314.822 514.839L316.064 527.817C324.032 531.009 352.634 540.804 353.3 532.791C353.501 530.427 350.585 528.207 348.977 526.932Z" fill="#FF8684"/>
<path d="M506.03 96.0237C498.998 81.8217 477.506 80.3337 464.288 87.5907C451.628 94.5237 454.55 120.156 454.373 118.086C447.938 118.317 444.092 120.576 445.184 126.972C446.519 134.811 458.213 132 458.213 132C458.213 132 463.403 147.843 470.651 152.133C472.224 152.991 473.94 153.553 475.715 153.792C475.186 159.77 475.582 165.793 476.888 171.651C477.29 174.18 478.49 176.515 480.312 178.314C482.133 180.114 484.483 181.285 487.016 181.656C492.971 182.649 498.383 180.363 499.901 174.246C501.059 169.548 500.573 155.571 500.372 150.726C501.938 150.15 503.445 149.426 504.872 148.563C512.555 143.7 513.497 111.102 506.03 96.0237ZM498.191 171.057C497.651 177.015 494.852 180.114 488.531 179.673C482.696 179.289 480.215 175.854 478.931 170.973C477.74 165.428 477.382 159.736 477.869 154.086C484.753 154.485 491.651 153.611 498.218 151.509C498.637 158.018 498.628 164.548 498.191 171.057Z" fill="#FF8684"/>
<path d="M120.471 203.157C120.021 203.07 120.069 203.319 121.122 202.401C122.112 201.534 123.357 200.112 122.832 198.687C122.148 196.812 119.049 196.812 117.432 196.758C115.284 196.683 115.632 197.25 117.036 195.444C118.062 194.145 119.595 191.964 118.371 190.344C116.016 187.218 109.569 192.021 106.527 194.526C101.034 189.381 90.0604 192.972 82.9894 194.859C77.0914 187.959 65.3734 181.659 51.0244 180.729C26.6134 179.229 19.7704 206.004 16.5544 230.34C16.5485 230.531 16.5958 230.719 16.6912 230.885C16.7866 231.05 16.9263 231.185 17.0944 231.276C19.3512 232.5 21.7407 233.463 24.2164 234.144C22.7927 236.342 22.0731 238.922 22.1535 241.54C22.2339 244.158 23.1105 246.689 24.6664 248.796C23.428 249.122 22.2349 249.6 21.1144 250.221C11.7754 255.42 9.71445 275.823 39.0664 283.401C39.1744 286.14 39.3664 288.879 39.7144 291.585C40.3144 296.199 41.3014 303.585 46.6534 305.136C54.3784 307.383 59.1754 293.907 60.8584 286.032C64.5844 286.032 64.5334 286.014 64.5334 286.014C64.5334 291.828 64.9294 305.088 70.5334 306.615C76.4644 308.244 82.7284 297.57 85.1494 291.819C89.5114 293.355 97.1494 295.524 100.272 292.119C102.273 289.902 100.812 287.487 98.9734 285.666C102.351 286.416 107.466 286.497 108.309 283.359C109.029 280.713 105.357 277.755 103.011 276.006C110.871 277.713 113.085 274.311 111.429 270.741C109.362 266.241 102.552 262.041 97.9295 260.379C101.67 259.05 104.037 255.786 101.529 253.44C98.3644 250.491 91.5754 250.191 87.2734 250.44C85.3978 243.754 82.5558 237.377 78.8374 231.513C78.5374 226.767 78.5375 227.388 78.5375 227.334C85.9576 227.232 93.1858 224.961 99.3305 220.8C103.869 218.085 106.419 217.053 108.486 213.12C108.687 213.222 108.915 213.26 109.137 213.228C112.884 212.661 124.152 210.933 124.239 206.886C124.125 205.93 123.69 205.041 123.006 204.364C122.322 203.687 121.428 203.261 120.471 203.157ZM47.9104 303.168C42.3304 302.781 41.4664 289.536 41.2414 283.92C46.9762 285.159 52.8151 285.853 58.6804 285.993C57.3844 291.729 53.5174 303.567 47.9104 303.168ZM77.8414 300.219C76.2965 302.109 73.1614 305.289 70.8664 304.419C71.2864 304.56 66.7355 304.314 66.7355 285.945C68.3338 285.924 69.9295 285.81 71.5144 285.603C75.2759 287.651 79.1535 289.478 83.1274 291.075C81.8154 294.362 80.035 297.441 77.8414 300.219ZM94.0594 252.819C95.6525 253.08 100.005 254.043 100.422 255.612C100.182 258.012 95.1515 259.02 92.5805 259.161C92.4397 259.143 92.2967 259.158 92.1627 259.205C92.0287 259.252 91.9073 259.329 91.808 259.43C91.7086 259.531 91.6341 259.654 91.5901 259.789C91.5461 259.924 91.5339 260.067 91.5544 260.208C91.4194 262.383 93.9784 259.908 102.006 264.708C104.713 266.17 107.068 268.205 108.906 270.672C112.701 276.402 102.507 274.116 96.1294 271.647C94.9744 271.197 94.2185 273.051 95.2984 273.63C97.9774 275.088 105.09 279.387 106.131 282.225C106.311 282.714 106.311 282.825 105.933 283.125C104.888 283.752 103.67 284.029 102.456 283.917C98.8629 283.627 95.3665 282.606 92.1814 280.917C90.9394 280.317 89.8384 282.117 91.0835 282.792C102.015 288.756 100.272 292.008 94.5065 291.714C88.4764 291.414 78.0874 286.635 72.8254 283.8C71.8946 283.439 70.8773 283.364 69.9035 283.584C54.2584 284.664 30.1354 282.615 20.5204 270.684C18.7151 268.545 17.6005 265.909 17.3236 263.124C17.0467 260.339 17.6206 257.536 18.9694 255.084C24.7594 246 45.4684 251.64 62.9585 253.839C76.3144 255.564 72.9034 256.41 77.4514 254.667C82.7408 252.65 88.4574 252.018 94.0594 252.831V252.819ZM85.0264 250.566C82.4706 250.867 79.9556 251.447 77.5264 252.297C74.4124 253.416 75.4264 253.746 71.9314 253.089C67.0624 252.132 35.2354 247.053 27.1084 248.289C23.2894 244.47 23.8084 239.415 26.3314 234.861C36.7864 238.104 55.9144 239.022 77.3044 233.061C80.6361 238.535 83.2324 244.425 85.0264 250.578V250.566ZM105.081 214.266C103.363 215.829 101.441 217.151 99.3665 218.196C84.3005 227.487 71.2834 228.66 59.8594 214.44C58.9774 213.357 57.4594 214.908 58.3264 215.973C62.7272 221.831 69.1891 225.798 76.4044 227.073C76.3384 227.409 76.6204 231.273 76.6024 230.973C58.4585 236.034 34.6564 237.621 18.8014 229.695C22.5574 201.687 30.0934 178.188 57.6784 183.645C66.8278 185.27 75.2128 189.793 81.5974 196.545C80.774 198.709 80.5249 201.05 80.8745 203.34C80.9522 203.616 81.1361 203.851 81.3862 203.993C81.6363 204.134 81.9322 204.171 82.2094 204.096C83.9104 203.646 81.9095 201.672 83.6315 197.196C85.6385 199.203 84.9454 202.731 86.5535 202.641C86.8402 202.64 87.1149 202.525 87.3173 202.322C87.5198 202.119 87.6335 201.844 87.6335 201.558C87.4421 199.678 86.7718 197.878 85.6864 196.332C91.5844 194.376 102.516 191.991 106.035 197.124C107.573 199.762 108.302 202.795 108.133 205.844C107.963 208.893 106.902 211.826 105.081 214.278V214.266ZM121.248 207.921C117.784 209.542 114.086 210.607 110.289 211.077C111.21 208.494 111.527 205.734 111.215 203.009C110.903 200.285 109.971 197.668 108.489 195.36C117.06 188.478 120.429 190.536 112.563 197.397C111.825 198.045 112.617 199.197 113.481 198.981C115.283 198.598 117.135 198.519 118.962 198.747C121.326 198.996 122.115 199.185 119.385 201.369C116.319 203.733 114.546 202.89 115.023 204.369C115.398 205.995 117.123 204.204 120.375 205.035C121.17 205.233 122.304 205.827 122.322 206.73C122.319 207.186 121.716 207.645 121.248 207.933V207.921ZM335.115 317.445C329.544 306.708 321.732 297.045 310.116 293.85C309.933 294.569 309.628 295.251 309.216 295.869C331.008 301.332 340.173 333.108 345.624 354.861C315.792 366.474 278.943 363.828 253.578 354.501C261.618 330.087 265.827 306.105 290.634 297.15C290.266 296.516 289.999 295.829 289.842 295.113C265.881 303.918 260.373 325.338 253.416 348.03C247.485 367.53 219.816 436.911 219.675 437.247C219.597 437.392 219.551 437.553 219.542 437.718C219.533 437.883 219.56 438.048 219.622 438.202C219.685 438.355 219.78 438.492 219.902 438.604C220.024 438.716 220.169 438.8 220.326 438.849C244.127 446.461 268.828 450.9 293.79 452.049C325.716 453.426 349.98 448.23 369.435 439.959C369.641 439.836 369.801 439.649 369.892 439.427C369.983 439.206 369.999 438.961 369.939 438.729C343.359 337.545 342.6 331.851 335.115 317.445ZM222.144 437.031C222.276 436.731 248.646 369.3 252.945 356.538C278.058 365.994 315.945 368.733 346.215 356.97C348.015 364.143 365.811 431.409 367.665 438.363C323.079 457.269 268.995 450.873 222.144 437.031ZM87.7505 121.422C104.061 120.969 104.676 96.4227 104.676 96.4227C121.545 94.3497 138.972 101.451 144.435 119.979C145.894 119.582 147.237 118.844 148.355 117.827C149.473 116.81 150.333 115.542 150.865 114.127C151.397 112.713 151.586 111.192 151.416 109.69C151.246 108.188 150.722 106.748 149.886 105.489C152.49 105.056 154.816 103.613 156.359 101.472C157.902 99.3317 158.537 96.668 158.124 94.0617C157.2 83.9997 142.119 84.8997 142.119 84.8997C142.119 84.8997 152.643 80.9997 146.7 75.0627C140.757 69.1257 101.421 71.6397 87.2374 84.8997C76.3685 95.0637 82.5604 112.5 86.0375 120.063C87.0665 120.807 87.7505 121.422 87.7505 121.422ZM484.926 70.2507C485.916 66.4047 494.187 64.6017 496.533 75.6747C496.599 75.9025 496.736 76.1029 496.925 76.2462C497.114 76.3895 497.344 76.4679 497.58 76.4697C503.028 76.9467 507.48 83.8437 503.229 91.8177C503.74 92.4078 504.216 93.0268 504.654 93.6717C510.156 84.4227 505.554 75.7587 498.462 74.4327C498.176 72.4339 497.367 70.5462 496.117 68.9605C494.867 67.3748 493.22 66.1475 491.343 65.4027C490.038 65.0397 488.657 65.0436 487.354 65.4141C486.05 65.7846 484.874 66.5073 483.954 67.5027C482.903 65.5138 481.229 63.9241 479.189 62.9768C477.148 62.0295 474.854 61.7767 472.656 62.2571C470.458 62.7376 468.479 63.9248 467.02 65.6371C465.561 67.3494 464.703 69.4926 464.577 71.7387C462.582 70.8964 460.376 70.6848 458.256 71.1322C456.137 71.5797 454.205 72.6648 452.72 74.242C451.235 75.8191 450.268 77.8128 449.948 79.9554C449.629 82.0981 449.973 84.2871 450.933 86.2287C440.208 86.4057 437.733 98.9757 445.599 102.378C440.307 106.56 443.688 113.133 448.626 112.653C448.859 113.819 449.346 114.92 450.053 115.877C450.761 116.833 451.671 117.621 452.718 118.185C453.276 118.131 453.816 118.095 454.341 118.077C454.341 118.077 454.287 117.477 454.233 116.4C453.214 115.988 452.332 115.295 451.69 114.402C451.049 113.508 450.674 112.452 450.609 111.354C450.605 111.164 450.551 110.978 450.453 110.815C450.356 110.652 450.218 110.517 450.053 110.423C449.888 110.329 449.701 110.279 449.511 110.278C449.321 110.277 449.134 110.325 448.968 110.418C447.15 111.228 445.131 109.191 445.113 107.442C445.232 106.335 445.699 105.296 446.448 104.473C447.196 103.649 448.187 103.086 449.277 102.864C450.411 102.54 450.249 100.611 448.977 100.719C448.082 100.774 447.186 100.609 446.369 100.239C445.552 99.8679 444.839 99.3025 444.291 98.592C443.743 97.8816 443.377 97.0476 443.226 96.1632C443.075 95.2787 443.143 94.3708 443.424 93.5187C444.079 91.7055 445.372 90.1929 447.061 89.2641C448.75 88.3353 450.72 88.054 452.601 88.4727C453.411 88.6167 454.458 87.7167 453.828 86.8677C452.571 85.2866 451.917 83.3097 451.983 81.2905C452.049 79.2713 452.831 77.3414 454.19 75.8461C455.548 74.3509 457.395 73.3876 459.398 73.1286C461.402 72.8697 463.432 73.3319 465.126 74.4327C465.292 74.5261 465.479 74.5749 465.67 74.5744C465.86 74.5738 466.047 74.524 466.212 74.4297C466.377 74.3355 466.516 74.2 466.613 74.0364C466.71 73.8729 466.763 73.687 466.767 73.4967C466.484 71.4344 466.996 69.3415 468.2 67.6432C469.404 65.9449 471.209 64.7685 473.249 64.3529C475.289 63.9374 477.41 64.314 479.182 65.406C480.955 66.4981 482.245 68.2239 482.79 70.2327C482.854 70.4658 482.992 70.6717 483.184 70.8191C483.376 70.9665 483.61 71.0473 483.852 71.0494C484.093 71.0514 484.329 70.9745 484.523 70.8304C484.717 70.6862 484.859 70.4827 484.926 70.2507ZM443.652 510.531C436.481 514.134 430.116 519.156 424.944 525.294C422.493 528.099 419.094 532.356 422.439 534.684C424.254 535.654 426.329 536.025 428.367 535.746C439.184 534.902 449.91 533.146 460.431 530.499C464.397 529.239 465.153 524.913 465.207 521.238C465.354 509.4 458.1 503.853 443.652 510.531ZM459.999 528.339C449.181 531.117 438.127 532.879 426.981 533.601C421.62 533.601 422.766 531.465 425.304 528.201C430.201 522.295 436.089 517.287 442.704 513.402C453.231 507.867 462.462 507.906 462.996 519.783C463.116 522.498 463.176 527.286 459.999 528.339ZM540.24 521.22C533.217 514.107 522.993 506.22 513.042 506.349C506.76 506.445 503.415 510.654 502.698 516.786C502.266 520.425 502.23 526.227 505.743 528.462C508.539 530.262 538.839 535.845 544.062 533.961C550.8 531.51 542.676 523.686 540.24 521.22ZM542.133 532.179C536.496 532.743 515.883 529.224 508.971 527.346C507.798 527.204 506.724 526.616 505.971 525.705C504.959 523.804 504.51 521.654 504.675 519.507C504.675 501.642 523.464 508.461 535.134 519.345C538.363 522.048 541.223 525.162 543.642 528.609C544.545 530.058 545.544 531.867 542.133 532.179Z" fill="black"/>
<path d="M478.584 72.8638C478.299 72.8692 478.027 72.985 477.825 73.187C477.623 73.3889 477.507 73.6613 477.501 73.9468L477.609 78.0928C477.609 78.3793 477.723 78.654 477.926 78.8565C478.128 79.059 478.403 79.1728 478.689 79.1728C478.976 79.1728 479.251 79.059 479.453 78.8565C479.656 78.654 479.769 78.3793 479.769 78.0928L479.664 73.9468C479.661 73.6611 479.547 73.3879 479.345 73.1855C479.143 72.9832 478.87 72.8677 478.584 72.8638ZM485.376 75.8998C485.712 79.3078 485.7 79.5748 486.045 79.9168C486.252 80.1206 486.53 80.2348 486.819 80.2348C487.109 80.2348 487.387 80.1206 487.593 79.9168C488.073 79.3918 487.929 79.3828 487.575 75.8998C487.561 75.6182 487.438 75.3529 487.234 75.1587C487.029 74.9645 486.758 74.8563 486.476 74.8563C486.194 74.8563 485.923 74.9645 485.718 75.1587C485.513 75.3529 485.391 75.6182 485.376 75.8998ZM460.053 84.1648C459.753 81.4798 459.834 80.8438 459.423 80.4358C459.217 80.2319 458.938 80.1176 458.648 80.1176C458.358 80.1176 458.079 80.2319 457.872 80.4358C457.377 80.9818 457.518 81.1618 457.872 84.1648C457.904 84.432 458.032 84.6784 458.233 84.8572C458.434 85.0359 458.694 85.1347 458.963 85.1347C459.232 85.1347 459.492 85.0359 459.693 84.8572C459.894 84.6784 460.022 84.432 460.053 84.1648ZM450.843 94.2238C451.113 95.4478 451.332 96.6928 451.509 97.9348C451.686 99.1768 453.909 98.9578 453.609 97.3588C453.429 96.1138 453.216 94.8718 452.943 93.6448C452.676 92.2918 450.534 92.7478 450.843 94.2238ZM300.114 305.262C296.25 305.043 291.75 304.662 289.767 301.332C289.622 301.083 289.383 300.903 289.105 300.83C288.826 300.757 288.53 300.798 288.281 300.943C288.032 301.089 287.852 301.327 287.779 301.606C287.706 301.885 287.747 302.181 287.892 302.43C290.382 306.531 295.44 307.173 300.132 307.458C302.391 307.781 304.695 307.53 306.831 306.726C308.967 305.923 310.866 304.594 312.351 302.862C312.435 302.75 312.493 302.62 312.519 302.482C312.546 302.345 312.54 302.203 312.504 302.068C312.468 301.933 312.401 301.807 312.309 301.702C312.217 301.596 312.102 301.513 311.973 301.458C311.457 301.158 311.199 301.266 310.422 301.386C310.282 301.402 310.147 301.451 310.029 301.529C309.911 301.606 309.813 301.711 309.743 301.833C309.673 301.956 309.633 302.094 309.626 302.235C309.619 302.376 309.645 302.517 309.702 302.646C308.365 303.709 306.826 304.489 305.177 304.939C303.529 305.389 301.807 305.499 300.114 305.262ZM81.7595 333.396C84.9815 333.24 83.6165 316.95 73.5845 309.927C73.2482 309.695 72.8575 309.554 72.4505 309.517C72.0435 309.481 71.634 309.551 71.2619 309.719C70.8898 309.888 70.5677 310.15 70.327 310.481C70.0863 310.811 69.9352 311.198 69.8885 311.604C69.3061 315.423 69.5651 319.323 70.6475 323.031C72.7385 327.771 78.5135 333.552 81.7595 333.396ZM60.1565 331.782C63.2585 331.653 62.1635 315.495 51.9665 308.307C51.6319 308.069 51.2403 307.923 50.8314 307.885C50.4225 307.846 50.0107 307.916 49.6376 308.088C49.2645 308.26 48.9432 308.527 48.7064 308.862C48.4695 309.198 48.3253 309.59 48.2885 309.999C47.7066 313.817 47.9646 317.717 49.0445 321.426C50.7785 325.395 56.5895 331.959 60.1565 331.782ZM89.1485 516.369C77.7935 509.469 56.8925 520.269 50.9915 531.51C50.8989 531.676 50.8508 531.863 50.8519 532.053C50.853 532.244 50.9032 532.43 50.9977 532.595C51.0921 532.761 51.2277 532.898 51.3911 532.996C51.5545 533.093 51.7403 533.146 51.9305 533.151H98.1305C98.2953 533.145 98.4567 533.103 98.6032 533.027C98.7497 532.951 98.8775 532.844 98.9774 532.713C99.0773 532.582 99.1468 532.43 99.1809 532.268C99.215 532.107 99.2128 531.94 99.1745 531.78C98.6056 528.676 97.4265 525.715 95.7055 523.07C93.9845 520.424 91.7558 518.147 89.1485 516.369ZM96.7355 530.97H53.8565C57.9854 525.363 63.6419 521.065 70.1495 518.589C80.5955 514.563 89.2265 515.145 94.7495 525.942C95.5908 527.541 96.2566 529.227 96.7355 530.97ZM153.474 516.369C141.981 512.055 132.675 513.597 126.888 524.535C125.736 526.701 122.637 533.151 125.229 533.151H171.429C171.62 533.146 171.805 533.093 171.969 532.996C172.132 532.898 172.268 532.761 172.362 532.595C172.457 532.43 172.507 532.244 172.508 532.053C172.509 531.863 172.461 531.676 172.368 531.51C167.927 524.504 161.28 519.177 153.474 516.369ZM126.618 530.97C133.218 505.989 160.962 518.394 169.479 530.949C159.996 531 126.192 530.97 126.618 530.97ZM144.21 182.142C144.005 182.032 143.769 181.993 143.539 182.03C143.31 182.068 143.098 182.18 142.938 182.349C139.938 185.349 152.655 183.795 169.758 210.609C176.126 220.689 181.262 231.496 185.058 242.799L162.954 267.42C159.557 261.574 156.15 255.734 152.733 249.9C152.585 249.656 152.347 249.48 152.07 249.411C151.794 249.341 151.501 249.383 151.255 249.528C151.009 249.672 150.83 249.908 150.756 250.184C150.683 250.459 150.72 250.753 150.861 251.001C151.239 251.631 161.361 269.034 161.835 269.808C161.925 269.946 162.044 270.062 162.183 270.149C162.322 270.237 162.479 270.292 162.642 270.313C162.805 270.334 162.97 270.318 163.127 270.268C163.284 270.218 163.427 270.135 163.548 270.024C167.343 265.791 186.648 244.506 187.086 243.801C187.827 242.808 186.786 240.99 186.438 239.979C178.689 218.559 164.4 192.696 144.21 182.142ZM267.435 511.413H267.399C265.689 510.948 266.346 513.735 262.785 516.948C260.166 519.288 253.248 521.688 248.511 526.848C244.2 531.564 246.291 535.548 250.818 536.652C257.961 538.425 271.671 534.117 278.7 531.732C287.442 528.732 287.508 528.612 287.604 527.676C288.072 522.738 288.558 517.8 289.029 512.862C289.575 509.76 281.886 515.061 267.435 511.413ZM285.549 526.923C277.563 530.133 262.041 535.416 253.467 534.87C248.085 534.519 247.098 531.768 249.9 528.618C256.23 521.397 264 521.865 267.777 513.711C274.022 515.128 280.485 515.296 286.794 514.206L285.549 526.923ZM351.6 526.32C343.896 519.564 338.28 520.098 335.541 513.198C335.46 512.924 335.276 512.692 335.028 512.551C334.78 512.41 334.486 512.371 334.209 512.442L334.173 512.46C327.371 514.019 320.303 514.019 313.5 512.46C313.231 512.472 312.978 512.587 312.792 512.783C312.607 512.978 312.505 513.238 312.507 513.507C314.052 529.98 313.758 529.227 314.76 529.638C324.186 533.493 352.698 543.645 355.314 533.748C356.1 530.787 353.622 528.087 351.6 526.32ZM346.122 535.782C337.5 535.53 324.129 530.982 316.056 527.817L314.814 514.839C321.113 516.21 327.636 516.172 333.918 514.728C335.216 517.539 337.375 519.863 340.083 521.364C343.629 523.248 353.631 528.789 353.283 532.791C353.049 535.8 348.363 535.848 346.128 535.782H346.122ZM475.23 112.533C474.642 112.533 474.079 112.766 473.663 113.182C473.247 113.598 473.013 114.162 473.013 114.75C473.013 115.338 473.247 115.902 473.663 116.317C474.079 116.733 474.642 116.967 475.23 116.967C475.818 116.967 476.382 116.733 476.798 116.317C477.214 115.902 477.447 115.338 477.447 114.75C477.447 114.162 477.214 113.598 476.798 113.182C476.382 112.766 475.818 112.533 475.23 112.533ZM497.292 109.5C496.704 109.5 496.141 109.733 495.725 110.149C495.309 110.565 495.075 111.129 495.075 111.717C495.075 112.305 495.309 112.869 495.725 113.284C496.141 113.7 496.704 113.934 497.292 113.934C497.88 113.934 498.444 113.7 498.86 113.284C499.276 112.869 499.509 112.305 499.509 111.717C499.509 111.129 499.276 110.565 498.86 110.149C498.444 109.733 497.88 109.5 497.292 109.5ZM496.389 136.74C495.144 140.208 488.481 142.182 483.99 136.848C483.09 135.786 481.557 137.316 482.457 138.381C487.8 144.681 496.572 142.638 498.498 137.298C498.966 136.002 496.857 135.441 496.389 136.74ZM475.392 107.019C475.669 107.004 475.93 106.884 476.121 106.683C476.312 106.481 476.418 106.215 476.418 105.937C476.418 105.66 476.312 105.393 476.121 105.192C475.93 104.991 475.669 104.87 475.392 104.856C473.632 104.806 471.892 105.244 470.365 106.122C468.838 107 467.583 108.283 466.74 109.83C466.598 110.081 466.56 110.378 466.635 110.656C466.71 110.935 466.892 111.173 467.142 111.318C467.391 111.463 467.688 111.504 467.967 111.431C468.246 111.359 468.486 111.179 468.633 110.931C469.278 109.709 470.255 108.694 471.45 108.002C472.646 107.31 474.012 106.97 475.392 107.019ZM502.95 105.759C501.9 104.493 500.524 103.538 498.971 102.998C497.417 102.457 495.746 102.352 494.136 102.693C493.858 102.769 493.621 102.953 493.478 103.204C493.335 103.455 493.298 103.752 493.374 104.031C493.451 104.309 493.635 104.546 493.886 104.689C494.137 104.832 494.434 104.869 494.712 104.793C495.953 104.555 497.236 104.661 498.42 105.1C499.605 105.538 500.648 106.292 501.435 107.28C502.158 108.21 504 107.1 502.95 105.759ZM455.439 127.008C455.69 127.15 455.987 127.188 456.266 127.113C456.545 127.038 456.782 126.856 456.927 126.607C457.072 126.357 457.113 126.06 457.041 125.781C456.968 125.502 456.788 125.262 456.54 125.115C455.241 124.341 452.286 122.556 452.088 122.448C451.838 122.305 451.541 122.267 451.262 122.342C450.983 122.418 450.746 122.6 450.601 122.849C450.455 123.099 450.415 123.395 450.487 123.675C450.56 123.954 450.739 124.193 450.987 124.341C451.467 124.632 454.95 126.741 455.439 127.008ZM429.45 227.418C431.117 220.576 433.675 213.983 437.058 207.807C437.721 206.583 435.858 205.482 435.183 206.709C431.693 213.041 429.061 219.811 427.359 226.839C427.297 227.111 427.343 227.397 427.486 227.637C427.629 227.877 427.859 228.052 428.129 228.127C428.398 228.201 428.685 228.169 428.932 228.037C429.178 227.905 429.364 227.683 429.45 227.418ZM543.666 225.849C543.704 225.987 543.769 226.116 543.857 226.229C543.944 226.342 544.053 226.436 544.178 226.507C544.302 226.578 544.439 226.623 544.581 226.641C544.723 226.659 544.867 226.649 545.004 226.611C545.142 226.573 545.271 226.508 545.384 226.421C545.497 226.333 545.592 226.224 545.663 226.1C545.733 225.975 545.779 225.838 545.797 225.697C545.815 225.555 545.804 225.411 545.766 225.273C542.96 215.166 538.39 205.634 532.266 197.118C531.453 196.002 529.566 197.082 530.391 198.219C536.41 206.574 540.905 215.928 543.666 225.849ZM111.081 125.061C111.669 125.061 112.233 125.294 112.649 125.71C113.065 126.126 113.298 126.69 113.298 127.278C113.298 127.866 113.065 128.43 112.649 128.845C112.233 129.261 111.669 129.495 111.081 129.495C110.493 129.495 109.93 129.261 109.514 128.845C109.098 128.43 108.864 127.866 108.864 127.278C108.864 126.69 109.098 126.126 109.514 125.71C109.93 125.294 110.493 125.061 111.081 125.061ZM138.063 131.784C138.651 131.784 139.215 132.017 139.631 132.433C140.047 132.849 140.28 133.413 140.28 134.001C140.28 134.589 140.047 135.153 139.631 135.568C139.215 135.984 138.651 136.218 138.063 136.218C137.475 136.218 136.912 135.984 136.496 135.568C136.08 135.153 135.846 134.589 135.846 134.001C135.846 133.413 136.08 132.849 136.496 132.433C136.912 132.017 137.475 131.784 138.063 131.784ZM120 151.773C121.389 151.698 121.407 149.52 120 149.592C118.881 149.774 117.736 149.722 116.638 149.439C115.54 149.156 114.513 148.649 113.62 147.95C112.728 147.25 111.99 146.373 111.453 145.374C110.917 144.375 110.593 143.276 110.502 142.146C110.488 141.869 110.368 141.608 110.166 141.417C109.965 141.226 109.698 141.12 109.421 141.12C109.144 141.12 108.877 141.226 108.676 141.417C108.474 141.608 108.354 141.869 108.339 142.146C108.418 143.564 108.79 144.95 109.431 146.218C110.072 147.485 110.968 148.607 112.064 149.511C113.159 150.415 114.429 151.083 115.795 151.472C117.161 151.861 118.593 151.964 120 151.773ZM116.199 117.744C116.478 117.821 116.776 117.784 117.027 117.641C117.278 117.498 117.462 117.262 117.539 116.983C117.616 116.705 117.579 116.407 117.436 116.156C117.294 115.905 117.057 115.721 116.778 115.644C114.887 115.174 112.913 115.146 111.01 115.562C109.106 115.978 107.324 116.827 105.801 118.044C105.599 118.247 105.485 118.523 105.485 118.81C105.485 119.098 105.599 119.373 105.801 119.577C106.482 120.255 107.214 119.685 107.901 119.196C109.119 118.415 110.48 117.885 111.904 117.635C113.329 117.386 114.789 117.423 116.199 117.744ZM141 126.522C141.077 126.8 141.261 127.037 141.513 127.179C141.764 127.322 142.061 127.359 142.34 127.282C142.618 127.206 142.855 127.021 142.998 126.77C143.14 126.519 143.177 126.221 143.1 125.943C141.98 123.127 139.942 120.772 137.316 119.259C137.067 119.13 136.777 119.101 136.507 119.18C136.238 119.258 136.008 119.437 135.867 119.68C135.725 119.923 135.683 120.211 135.747 120.484C135.812 120.758 135.98 120.996 136.215 121.149C138.349 122.376 140.027 124.261 141 126.522ZM85.0745 131.172C85.9955 132.222 87.6095 130.731 86.6075 129.639C85.0565 127.908 81.4895 123.939 81.2705 123.69C81.1701 123.589 81.0509 123.509 80.9196 123.455C80.7883 123.4 80.6476 123.372 80.5055 123.372C80.3633 123.372 80.2226 123.4 80.0913 123.455C79.96 123.509 79.8408 123.589 79.7405 123.69C78.6455 124.881 80.1485 125.424 85.0745 131.172ZM102.792 158.7C106.337 160.314 110.2 161.109 114.093 161.025C114.37 161.01 114.631 160.89 114.822 160.689C115.013 160.487 115.119 160.221 115.119 159.943C115.119 159.666 115.013 159.399 114.822 159.198C114.631 158.997 114.37 158.876 114.093 158.862C110.581 158.872 107.1 158.186 103.854 156.843C103.732 156.764 103.595 156.712 103.452 156.688C103.309 156.664 103.162 156.67 103.021 156.704C102.88 156.739 102.748 156.802 102.632 156.889C102.516 156.976 102.419 157.087 102.346 157.213C102.274 157.339 102.229 157.478 102.212 157.622C102.196 157.767 102.209 157.913 102.25 158.052C102.292 158.191 102.362 158.32 102.455 158.432C102.548 158.543 102.663 158.634 102.792 158.7ZM298.923 274.386C301.594 274.317 304.175 273.411 306.303 271.796C308.43 270.181 309.997 267.939 310.782 265.386L288.738 266.091C289.082 268.501 290.321 270.693 292.209 272.23C294.096 273.767 296.494 274.537 298.923 274.386ZM314.949 261.6C314.406 257.178 319.449 255.054 320.244 261.345C320.285 261.602 320.414 261.838 320.607 262.012C320.801 262.186 321.049 262.289 321.309 262.302C321.831 262.302 322.479 261.798 322.389 261.219C321.21 251.886 312.168 254.562 312.765 261.582C312.764 261.725 312.791 261.867 312.845 262C312.899 262.133 312.978 262.254 313.079 262.357C313.18 262.459 313.299 262.54 313.431 262.596C313.563 262.652 313.705 262.682 313.848 262.683C313.992 262.684 314.134 262.657 314.267 262.603C314.4 262.549 314.521 262.47 314.623 262.369C314.725 262.269 314.807 262.149 314.863 262.017C314.919 261.885 314.948 261.743 314.949 261.6ZM285.765 262.545C286.29 262.545 286.938 262.041 286.848 261.462C285.816 253.377 278.817 254.313 277.494 259.281C276.195 264.15 279.51 263.157 279.387 261.822C278.946 257.856 283.386 255.024 284.613 261.156C284.7 261.456 284.733 262.545 285.765 262.545ZM277.638 251.208C278.346 250.359 279.274 249.723 280.321 249.37C281.368 249.016 282.493 248.96 283.569 249.207C283.846 249.283 284.142 249.246 284.392 249.105C284.642 248.963 284.825 248.728 284.901 248.451C285.369 246.459 280.044 245.613 276.087 249.651C275.913 249.862 275.823 250.131 275.836 250.405C275.848 250.679 275.963 250.939 276.156 251.133C276.35 251.328 276.609 251.443 276.883 251.457C277.157 251.471 277.426 251.382 277.638 251.208ZM315.954 248.883C317.016 248.843 318.069 249.088 319.004 249.592C319.939 250.095 320.723 250.84 321.273 251.748C321.35 252.026 321.534 252.263 321.785 252.406C322.036 252.549 322.333 252.586 322.611 252.51C322.89 252.433 323.127 252.25 323.27 251.999C323.412 251.748 323.45 251.45 323.373 251.172C322.691 249.801 321.63 248.654 320.318 247.865C319.005 247.077 317.494 246.679 315.963 246.72C315.686 246.733 315.425 246.852 315.233 247.053C315.042 247.253 314.934 247.52 314.933 247.797C314.932 248.074 315.037 248.342 315.227 248.544C315.417 248.746 315.678 248.867 315.954 248.883ZM262.857 263.553C265.194 263.7 266.031 265.752 267.147 264.636C267.353 264.43 267.468 264.151 267.468 263.86C267.468 263.57 267.353 263.291 267.147 263.085C265.93 262.076 264.433 261.465 262.857 261.336C262.573 261.351 262.306 261.474 262.11 261.68C261.914 261.886 261.805 262.16 261.805 262.444C261.805 262.729 261.914 263.002 262.11 263.209C262.306 263.415 262.573 263.538 262.857 263.553ZM332.97 264.168C334.623 261.852 335.748 262.206 336.216 261.426C336.319 261.239 336.365 261.026 336.349 260.813C336.332 260.601 336.253 260.398 336.122 260.229C335.992 260.061 335.814 259.934 335.612 259.865C335.411 259.797 335.193 259.788 334.986 259.842C333.385 260.479 332.033 261.616 331.131 263.085C330.3 264.213 332.172 265.446 332.97 264.168ZM54.9575 163.578C55.4213 163.578 55.8662 163.394 56.1942 163.066C56.5222 162.738 56.7065 162.293 56.7065 161.829C56.7065 161.365 56.5222 160.92 56.1942 160.592C55.8662 160.264 55.4213 160.08 54.9575 160.08C54.4936 160.08 54.0487 160.264 53.7207 160.592C53.3927 160.92 53.2085 161.365 53.2085 161.829C53.2085 162.293 53.3927 162.738 53.7207 163.066C54.0487 163.394 54.4936 163.578 54.9575 163.578ZM74.9465 160.548C75.3974 160.529 75.8237 160.337 76.1361 160.011C76.4486 159.686 76.623 159.252 76.623 158.8C76.623 158.349 76.4486 157.915 76.1361 157.589C75.8237 157.264 75.3974 157.072 74.9465 157.053C74.4955 157.072 74.0693 157.264 73.7568 157.589C73.4443 157.915 73.2699 158.349 73.2699 158.8C73.2699 159.252 73.4443 159.686 73.7568 160.011C74.0693 160.337 74.4955 160.529 74.9465 160.548ZM65.0675 169.146C69.7235 171 72.2705 165 70.2005 164.55C69.9233 164.478 69.6289 164.517 69.3801 164.658C69.1312 164.8 68.9476 165.034 68.8685 165.309C68.4305 167.49 65.9315 168.465 64.0385 165.309C63.9304 165.058 63.7311 164.858 63.4809 164.749C63.2307 164.64 62.9485 164.631 62.6914 164.722C62.4344 164.814 62.2219 165 62.0971 165.243C61.9723 165.485 61.9445 165.766 62.0195 166.029C62.2888 166.728 62.6981 167.366 63.2221 167.902C63.7462 168.437 64.3741 168.861 65.0675 169.146ZM39.9425 170.733C40.2209 170.809 40.5183 170.772 40.7693 170.629C41.0202 170.486 41.2041 170.249 41.2805 169.971C41.3568 169.692 41.3195 169.395 41.1766 169.144C41.0337 168.893 40.7969 168.709 40.5185 168.633C35.9795 167.997 34.4945 164.838 35.5085 162.126C36.2945 160.554 38.5475 158.163 42.3575 163.245C43.0445 164.469 44.9165 163.371 44.2325 162.144C43.5386 160.571 42.2604 159.331 40.6682 158.683C39.076 158.036 37.2946 158.033 35.7005 158.676C31.3805 161.034 31.8005 169.536 39.9425 170.733Z" fill="black"/>
</svg>
