<svg width="500" height="500" viewBox="0 0 500 500" fill="none" xmlns="http://www.w3.org/2000/svg">
<path d="M82.002 155.847C82.167 155.682 82.347 155.517 82.502 155.365C82.6616 155.217 82.8599 155.119 83.0736 155.08C83.2874 155.042 83.5077 155.065 83.7086 155.147C83.9095 155.23 84.0827 155.368 84.2078 155.546C84.3329 155.723 84.4046 155.933 84.4145 156.15C84.497 156.812 84.5945 157.472 84.6895 158.132C97.387 160.465 114.665 161.357 125.885 155.105C125.845 154.497 125.79 153.88 125.735 153.272C125.74 153.029 125.823 152.794 125.971 152.601C126.12 152.408 126.326 152.267 126.56 152.2C135.642 148.7 133.367 136.782 126.022 142.217C125.874 142.303 125.708 142.354 125.537 142.366C125.366 142.378 125.195 142.35 125.037 142.284C124.878 142.219 124.737 142.118 124.624 141.989C124.511 141.861 124.429 141.708 124.385 141.542C124.3 140.91 123.09 133.707 123.09 133.707C123.09 133.707 123.022 133.667 122.995 133.64C122.538 134.084 121.99 134.422 121.389 134.631C120.787 134.84 120.148 134.914 119.514 134.848C118.881 134.782 118.27 134.578 117.724 134.25C117.179 133.922 116.712 133.478 116.357 132.95C116.895 133.985 115.505 135.127 114.357 134.92C113.258 134.531 112.276 133.871 111.502 133C110.641 132.183 109.575 131.612 108.418 131.348C107.26 131.084 106.053 131.137 104.922 131.5C102.195 132.642 100.792 136.18 97.872 136.62C97.2973 136.673 96.718 136.598 96.1753 136.402C95.6326 136.205 95.14 135.891 94.7325 135.483C94.3249 135.074 94.0126 134.58 93.8176 134.037C93.6227 133.494 93.5499 132.914 93.6045 132.34C90.8131 134.678 87.3401 136.049 83.7045 136.25C83.6008 139.489 83.6008 142.731 83.7045 145.97C83.7028 146.142 83.6618 146.311 83.5846 146.464C83.5075 146.617 83.3962 146.751 83.2594 146.855C83.1226 146.959 82.9638 147.03 82.7952 147.063C82.6267 147.096 82.4529 147.09 82.287 147.045C74.9545 145.25 70.772 153.022 82.002 155.847Z" fill="#A76C6C"/>
<path d="M263.021 174.447C263.315 174.454 263.595 174.574 263.803 174.783C264.01 174.991 264.13 175.271 264.136 175.565C265.964 193.835 289.051 192.997 299.279 185.187C301.268 183.53 302.864 181.451 303.95 179.1C305.035 176.749 305.584 174.187 305.556 171.597C305.562 171.303 305.682 171.023 305.891 170.815C306.099 170.607 306.379 170.488 306.674 170.482C308.509 170.637 310.336 170.097 311.794 168.97C315.484 165.52 311.264 161.292 306.686 164.44C306.538 164.525 306.372 164.575 306.201 164.586C306.031 164.597 305.86 164.569 305.702 164.504C305.544 164.439 305.403 164.338 305.289 164.21C305.176 164.082 305.094 163.93 305.049 163.765C305.034 163.722 305.034 163.682 305.021 163.655C301.375 163.178 297.975 161.553 295.314 159.015C292.159 162.71 283.406 169.33 279.949 165.98C279.607 165.627 279.343 165.208 279.17 164.749C278.998 164.29 278.923 163.8 278.949 163.31C272.666 168.25 267.221 164.81 268.449 160.832C269.416 157.78 269.929 159.477 264.759 161.285C264.398 163.238 264.148 165.211 264.009 167.192C264.007 167.364 263.966 167.533 263.889 167.687C263.812 167.84 263.7 167.974 263.563 168.077C263.427 168.181 263.268 168.252 263.099 168.285C262.931 168.318 262.757 168.312 262.591 168.267C256.909 166.295 253.831 174.015 263.021 174.447Z" fill="#FFCEB6"/>
<path d="M360.895 99.9225C374.225 95.075 383.26 97.46 395.095 93.1875C401.666 91.114 407.359 86.909 411.272 81.2375C411.947 79.97 410.022 78.8425 409.345 80.1075C409.055 80.6143 408.728 81.0983 408.365 81.555V81.5825C396.365 97.005 375.26 91.7375 360.232 97.815C359.018 98.2186 357.885 98.8339 356.885 99.6325C357.065 100.362 357.23 101.092 357.41 101.822C358.152 101.785 357.625 101.375 360.895 99.9225Z" fill="#5BCEFA"/>
<path d="M171.083 433.87C176.624 434.838 182.292 434.838 187.833 433.87L199.925 359.25C188.569 357.61 176.976 355.728 165.148 353.605C165.358 380.461 167.341 407.275 171.083 433.87ZM201.385 359.432L203.45 432.342C203.45 432.342 209.55 435.015 222.108 433.487L232.888 363.397C222.616 362.269 212.115 360.947 201.385 359.432Z" fill="#FCAFB7"/>
<path d="M110.461 342.12C99.3096 339.453 88.0288 336.536 76.6188 333.37C76.7138 346.092 77.9813 385.842 89.5738 414.067C89.5738 414.067 95.1638 421.17 111.411 413.567C111.411 413.55 105.064 361.89 110.461 342.12ZM150.864 350.91C139.477 348.68 127.907 346.197 116.154 343.462C115.919 356.802 115.624 410.85 125.371 439.212C133.059 440.797 140.962 441.05 148.736 439.962C148.736 439.962 154.099 389.337 150.864 350.91Z" fill="#DCBEFF"/>
<path d="M287.515 367.9L296.375 440.73C296.375 440.73 307.045 443.397 315.417 439.585L319.602 369.132C309.306 368.901 298.61 368.49 287.515 367.9ZM258.677 440.342C258.677 440.342 271.247 444.157 281.147 440.342L287.067 367.872C276.287 367.279 265.171 366.481 253.72 365.477C253.796 390.512 255.452 415.516 258.677 440.342Z" fill="#7D4AB4"/>
<path d="M474.885 340.797C356.298 366.572 212.91 353.922 99.7555 321.66C88.0505 318.327 79.0479 315.382 73.293 313.232C71.1155 322.362 68.7155 331.147 67.653 330.842C185.953 365.135 315.253 376.57 429.153 364.982C459.553 361.882 476.73 358.255 476.73 358.255C475.933 352.457 475.318 346.634 474.885 340.797Z" fill="#B26EE6"/>
<path d="M241.369 306.185C157.686 296.34 101.691 270.813 79.2611 258.878C79.8066 269.514 79.3807 280.177 77.9886 290.735C137.082 307.116 197.371 318.828 258.299 325.763C251.881 319.949 246.196 313.374 241.369 306.185ZM474.901 289.193C431.28 300.215 386.69 306.971 341.761 309.365C335.256 317.288 327.87 324.445 319.746 330.698C370.746 333.08 424.066 331.07 473.996 320.91C473.826 310.323 474.171 299.75 474.901 289.193Z" fill="#76D3DE"/>
<path d="M201.021 191.92C201.688 186.975 202.046 187.82 201.488 187.502C197.994 185.563 194.993 182.846 192.718 179.561C190.442 176.275 188.954 172.51 188.368 168.557C186.792 168.576 185.23 168.27 183.777 167.658C182.325 167.046 181.015 166.141 179.928 165C176.046 170.672 172.226 175.367 172.226 175.367C172.226 175.367 179.171 187.25 201.021 191.92ZM233.983 174.207C233.026 177.35 231.374 180.238 229.15 182.657C226.926 185.076 224.188 186.964 221.136 188.182C221.198 190.57 221.158 192.092 221.068 193.882C223.836 194.545 242.663 198.365 250.306 182.737C247.383 179.143 244.802 175.285 242.596 171.212C241.444 172.277 240.084 173.093 238.602 173.608C237.12 174.123 235.548 174.327 233.983 174.207ZM188.403 155.525C188.526 154.775 188.678 153.995 188.843 153.24C188.927 152.956 189.118 152.716 189.374 152.57C189.631 152.424 189.934 152.382 190.221 152.455C190.853 152.565 191.486 152.66 192.121 152.757C192.45 150.536 193.113 148.377 194.088 146.355C194.242 146.107 194.486 145.929 194.769 145.859C195.052 145.789 195.352 145.832 195.603 145.979C195.855 146.127 196.039 146.367 196.116 146.648C196.193 146.929 196.157 147.229 196.016 147.485C195.169 149.264 194.599 151.163 194.323 153.115C203.923 154.615 219.046 156.737 228.688 157.232C229.078 156.24 229.22 155.167 229.101 154.107C229.088 153.832 229.176 153.563 229.35 153.349C229.523 153.136 229.769 152.995 230.041 152.952C230.313 152.909 230.59 152.968 230.821 153.118C231.052 153.267 231.219 153.497 231.291 153.762C231.497 154.958 231.387 156.187 230.973 157.327C231.938 157.355 232.916 157.37 233.878 157.37C234.181 153.832 233.622 150.274 232.251 147C231.796 145.622 233.958 145.045 234.413 146.407C237.263 155.112 236.008 157.232 236.008 158.495C236.066 159.075 236.078 159.652 236.093 160.23C237.141 159.528 238.37 159.145 239.631 159.13C239.218 150.07 238.101 135.785 219.073 132.467C196.481 128.53 190.133 142.367 187.586 151C186.221 155.567 185.803 152.545 188.403 155.525Z" fill="#FFD35C"/>
<path d="M357.851 251.29C395.688 243.805 409.503 232.5 432.958 221.75C430.003 208.36 424.053 195 411.541 189.285C410.041 192.465 408.213 195.085 404.588 195.535C403.244 195.718 401.876 195.616 400.574 195.237C399.272 194.857 398.064 194.208 397.028 193.332C396.172 192.456 395.518 191.402 395.111 190.246C394.705 189.09 394.556 187.859 394.676 186.64C384.003 188.072 382.331 193.57 375.228 195.707C366.883 198.207 361.458 189.497 358.511 183.04C353.376 171.847 356.653 158.877 361.528 148.207C356.57 143.949 350.632 140.987 344.248 139.587C343.329 139.427 342.4 139.33 341.468 139.297C341.468 139.297 326.218 153.77 327.753 185.505C329.288 217.24 360.503 226.135 360.503 226.135L357.851 251.29Z" fill="#FEE992"/>
<path d="M236.433 279.25C162.3 256.7 143.25 240.315 76.8302 234.328C78.0277 242.478 78.8752 250.67 79.2602 258.878C101.675 270.813 157.685 296.34 241.368 306.185C235.518 297.07 232.75 287.68 236.433 279.25ZM296 298.653C297.773 296.339 299.668 294.122 301.678 292.01C297.231 291.693 292.794 291.262 288.365 290.715C293.035 295.233 296 298.653 296 298.653ZM352 289.973C350.115 297.133 346.616 303.767 341.77 309.365C386.699 306.972 431.289 300.216 474.91 289.193C475.66 278.843 476.593 268.788 478.51 255.193C435.308 258.558 398.915 282.5 352 289.973Z" fill="#FFD35C"/>
<path d="M150.031 71.4999C137.598 65.8549 119.233 70.7499 109.531 57.8149C109.238 57.4259 108.967 57.0211 108.718 56.6024C108.043 55.3374 106.103 56.4649 106.791 57.7324C108.926 61.6899 115.556 67.1724 125.888 69.2324C133.533 70.7574 141.471 69.9824 149.931 74.0274C150.993 74.5274 150.621 74.6174 151.181 74.7399C151.361 73.9899 151.553 73.2124 151.731 72.4424C151.196 72.0732 150.627 71.7575 150.031 71.4999Z" fill="#76D3DE"/>
<path d="M220.253 199.885C217.795 208.773 208.503 209.68 203.125 204.305C201.34 202.199 200.46 199.473 200.675 196.72C192.209 195.382 184.314 191.612 177.953 185.869C171.591 180.125 167.036 172.656 164.843 164.37C161.753 152.708 160.253 137.303 161.943 116.965L143.108 117.75C142.873 118.765 140.708 127.715 140.643 127.98C140.313 129.385 138.143 128.78 138.48 127.39C138.508 127.31 140.248 119.64 140.78 117.86L139.265 117.93C139.265 117.93 130.303 175.013 156.695 207.7C182.98 218.435 201.355 232.06 240.753 243.855C241.675 235.278 242.398 209.263 220.253 199.885Z" fill="#6DD3A8"/>
<path d="M358.923 107.865C363.828 103.077 384.703 103.732 395.643 99.7822C402.214 97.7075 407.906 93.5028 411.82 87.8322C412.495 86.5647 410.57 85.4372 409.893 86.7022C409.601 87.2066 409.274 87.6903 408.915 88.1497V88.1772C396.885 103.532 375.648 98.3972 360.78 104.41C359.925 104.728 359.097 105.114 358.303 105.565L358.88 107.947C358.853 107.92 358.895 107.892 358.923 107.865ZM474 320.91C424.09 331.07 370.75 333.095 319.75 330.697C310.415 337.975 300.571 344.575 290.293 350.447C278.935 343.155 268.229 334.895 258.293 325.76C197.37 318.832 137.086 307.121 78.0004 290.735C77.2779 296.172 74.2504 309.235 73.3054 313.235C93.5929 320.807 126.703 329.04 148.23 333.735C252.303 356.315 370.405 363.522 474.898 340.81C474.363 334.19 474.088 327.56 474 320.91ZM108.945 66.4772C121.508 79.0747 138.833 73.1072 149.795 79.5847C150.03 79.7622 149.865 79.9822 150.51 77.3947C147.079 75.7826 143.412 74.7277 139.648 74.2697C130.878 72.8247 120.03 73.4347 111.465 65.7697C110.219 64.6929 109.142 63.4346 108.27 62.0372C107.595 60.7722 105.655 61.8997 106.343 63.1672C107.036 64.3972 107.914 65.5135 108.945 66.4772Z" fill="white"/>
<path d="M411.339 93.6151C410.506 94.9843 409.497 96.2384 408.339 97.3451C394.274 111.163 372.546 105.013 359.901 112.38C360.081 113.153 360.271 113.93 360.451 114.715C362.591 113.478 364.908 112.575 367.321 112.038C373.925 110.633 380.612 109.648 387.341 109.09C401.471 107.09 410.521 99.8526 413.281 94.7576C413.944 93.4776 412.014 92.3476 411.339 93.6151ZM122.976 188.783C122.976 192.455 122.339 194.003 118.976 195.158C114.317 196.444 109.4 196.473 104.726 195.24C101.436 194.29 99.3336 192.518 98.3386 187.323C95.6348 187.84 92.9636 188.516 90.3386 189.345C50.2186 202.04 37.5236 132.718 41.8386 110.385C35.7186 108.715 23.9211 108.135 17.7161 111.135C17.7161 111.135 -3.56893 202.655 73.9886 217.773C70.7386 201.315 69.5736 201.893 78.6686 199.97C99.2783 196.055 120.509 196.883 140.751 202.393C136.298 196.202 130.114 191.467 122.976 188.783ZM107.886 68.9851C107.581 68.5857 107.301 68.1682 107.046 67.7351C106.371 66.4701 104.429 67.5976 105.119 68.8651C107.251 72.8226 113.881 78.3051 124.214 80.3651C130.046 81.5251 142.314 81.5801 148.599 85.2926L148.626 85.3201C148.806 84.5701 148.999 83.7926 149.176 83.0351C137.826 77.0551 117.614 81.9526 107.886 68.9851Z" fill="#FCAFB7"/>
<path d="M352.383 80.7972C353.633 79.9989 354.986 79.3733 356.403 78.9372C367.691 75.1197 378.011 76.7722 389.021 72.7822C395.592 70.7094 401.285 66.5043 405.198 60.8322C405.873 59.5647 403.948 58.4372 403.271 59.7022C402.969 60.2145 402.635 60.7071 402.271 61.1772C389.611 77.5722 364.823 70.8947 351.826 78.4697C352.001 79.2497 352.383 80.7972 352.383 80.7972ZM477.233 208.69C419.016 218.63 415.853 239.812 357.848 251.29C318.486 259.077 278.598 255.2 240.778 243.855C192.648 229.445 173.098 210.992 140.778 202.385C120.537 196.868 99.3049 196.039 78.6957 199.962C70.0382 201.792 70.7482 201.335 73.4932 215.052C118.533 205.17 159.883 230.802 201.291 248.935C240.858 266.245 284.623 276.06 328.111 274.077C331.968 272.917 336.032 272.615 340.018 273.195C407.048 266.407 422.468 238.545 487.236 220.015C488.251 212.635 486.583 207.095 477.233 208.69ZM114.398 44.2272C126.726 56.5897 141.898 50.6697 155.331 57.3897C155.511 56.6397 155.688 55.8622 155.881 55.1047C145.216 49.2372 124.303 54.0397 114.563 41.0472C114.258 40.648 113.978 40.2306 113.723 39.7972C113.048 38.5297 111.106 39.6597 111.796 40.9272C112.496 42.1495 113.373 43.2616 114.398 44.2272Z" fill="#5BCEFA"/>
<path d="M285.374 204.96C286.294 205.521 287.365 205.782 288.44 205.709C289.515 205.635 290.54 205.229 291.374 204.548C293.036 202.85 293.995 200.587 294.059 198.213C294.384 195.638 294.5 193.041 294.404 190.448C290.297 192.058 285.897 192.79 281.489 192.595C281.414 197.183 281.564 202.775 285.374 204.96Z" fill="#FFCEB6"/>
<path d="M276.891 214.5C272.874 216.638 273.699 222.803 275.391 226.123C277.793 230.051 280.896 233.504 284.546 236.31C285.232 237.167 286.185 237.77 287.254 238.022C288.322 238.274 289.445 238.16 290.441 237.7C292.367 236.573 294.158 235.231 295.781 233.7C316.339 217.793 293.969 206.7 289.311 222.218H288.829C286.751 218.398 280.966 212.338 276.891 214.5Z" fill="#F55555"/>
<path d="M353.98 87.7896C363.543 82.5746 371.73 83.0646 381.46 81.6646C395.593 79.6646 404.64 72.4271 407.4 67.3321C408.075 66.0646 406.15 64.9346 405.473 66.2021C405.187 66.7096 404.86 67.1929 404.495 67.6471V67.6746C392.298 83.2471 371.64 77.7271 356.36 83.9071C355.336 84.2691 354.361 84.7552 353.455 85.3546C353.833 86.9996 353.868 87.3296 353.98 87.7896Z" fill="white"/>
<path d="M406.605 75.11L406.59 75.1375C394.67 90.4675 373.325 85.3575 358.455 91.37C357.312 91.7656 356.235 92.332 355.262 93.05C355.442 93.8225 355.632 94.5925 355.812 95.365C356.645 95.19 356.372 94.4775 359.64 93.2975C367.725 90.2975 377.875 89.9525 383.612 89.1275C397.742 87.1275 406.792 79.8775 409.55 74.795C410.225 73.5275 408.3 72.3975 407.622 73.665C407.338 74.1829 406.996 74.6676 406.605 75.11Z" fill="#F5A9B8"/>
<path d="M44.8701 93.4504C43.7867 93.6241 42.7508 94.0195 41.8273 94.6118C40.9037 95.2042 40.1123 95.9807 39.5026 96.8929C38.9226 97.7454 37.3551 97.5129 37.4226 96.3279C37.5826 93.0304 37.0101 86.3954 35.0551 83.8404C33.6251 82.0279 33.0776 83.6229 32.2051 86.0154C31.4619 88.0466 31.0214 90.176 30.8976 92.3354C30.8426 93.3354 29.3001 94.0004 28.8176 92.9004C27.5842 89.8909 25.6261 87.233 23.1176 85.1629C23.0551 85.4129 23.0676 84.9804 22.7051 86.6354C22.1412 89.3417 22.2789 92.1473 23.1051 94.7854C23.5026 96.0804 21.7551 96.6179 21.0526 95.6529C19.9645 93.782 18.3582 92.266 16.4276 91.2879C14.8276 90.7129 14.7076 91.0379 14.7601 92.2879C14.8026 96.0529 16.9851 100.828 21.1976 109.885C27.1023 108.734 33.1724 108.72 39.0826 109.843C39.9126 108.248 45.8576 96.6954 46.2626 94.9179C46.5026 93.7679 46.0801 93.2804 44.8701 93.4504Z" fill="#A76C6C"/>
<path d="M201.262 248.95C159.974 230.887 118.559 205.145 73.4644 215.065C74.7591 221.45 75.8812 227.869 76.8294 234.315C143.549 240.332 160.317 256.085 236.432 279.24C245.892 257.087 271.014 273.892 288.367 290.702C292.799 291.252 297.247 291.702 301.679 291.997C307.477 285.842 317.162 277.19 328.082 274.065C284.422 276.032 240.829 266.25 201.262 248.95ZM339.977 273.195C349.174 274.53 353.904 280.49 351.977 289.972C398.807 282.632 435.019 258.567 478.514 255.172C478.982 251.8 479.492 248.422 480.029 245.067C480.814 240.11 485.957 228.785 487.222 220.015C422.357 238.637 406.839 266.427 339.977 273.195ZM129.047 57.7625C134.409 58.83 143.797 58.8375 151.172 61.59C152.184 61.9114 153.127 62.4202 153.952 63.09L154.532 60.71C148.282 56.54 133.669 57.165 125.282 54.4725C120.262 52.86 114.117 49.2225 111.924 45.1225C111.252 43.8575 109.309 44.985 109.997 46.2525C111.817 49.9475 118.499 55.6625 129.047 57.7625Z" fill="#FF9F48"/>
<path d="M127.314 63.902C132.679 64.972 142.064 64.977 149.439 67.7295C150.525 68.115 151.547 68.6629 152.469 69.3545C152.662 68.5695 152.839 67.7995 153.032 67.0145C146.994 62.6995 131.904 63.2945 123.532 60.612C118.656 59.1997 114.304 56.3846 111.017 52.517C110.67 52.14 110.373 51.7199 110.134 51.267C109.459 49.9995 107.519 51.1295 108.207 52.397C110.252 56.267 116.887 61.8295 127.314 63.902Z" fill="#FFD35C"/>
<path d="M100.128 179.648C99.9343 182.086 100.064 184.539 100.513 186.943C101.491 191.883 103.181 192.738 106.928 193.47C111.022 194.293 115.261 194.013 119.211 192.658C120.168 192.158 120.801 192.158 120.723 188.018C120.623 184.627 120.334 181.244 119.858 177.885C113.52 180.053 106.751 180.658 100.128 179.648Z" fill="#A76C6C"/>
<path d="M347.426 433.499C347.426 433.499 356.176 438.824 373.711 434.249L391.211 367.952C379.356 368.614 366.429 369.082 352.549 369.262C350.689 386.977 347.921 415.587 347.426 433.499ZM393.869 367.797C395.449 383.492 398.976 421.384 398.081 440.714C398.081 440.714 406.464 444.899 422.081 441.464C422.081 441.464 431.491 401.419 429.151 364.964C418.849 366.054 407.044 367.04 393.869 367.797Z" fill="#E59E70"/>
<path d="M434.62 141.13C436.275 137.235 435.045 133.99 433.145 132.897C431.315 131.835 428.92 133.035 427.172 133.777C426.023 134.274 424.91 134.848 423.84 135.497C425.232 127.23 421.075 123.282 414.435 129.067C414.463 128.191 414.394 127.314 414.23 126.452C414.133 125.646 413.801 124.887 413.274 124.27C412.747 123.653 412.05 123.205 411.27 122.982C408.42 122.537 403.707 128.075 401.892 130.28C402.462 129.577 403.502 130.182 404.577 130.53C418.34 135.383 431.119 142.673 442.302 152.05C442.469 152.227 442.577 152.453 442.609 152.694C442.641 152.936 442.597 153.182 442.482 153.397C446.222 144.367 441.672 139.575 434.62 141.13Z" fill="#A76C6C"/>
<path d="M367.089 134.75C365.467 135.006 363.931 135.654 362.614 136.637C361.499 137.505 360.027 136.137 361.032 135.052C362.282 133.685 365.009 130.552 363.977 128.885C363.666 128.57 363.263 128.364 362.826 128.297C362.389 128.23 361.942 128.306 361.552 128.512C360.302 129.175 359.934 129.915 358.842 131.225C358.029 132.202 356.322 130.882 357.077 129.875C358.502 127.997 361.269 124.64 358.732 124.052C358.178 124.015 357.623 124.088 357.098 124.267C356.573 124.447 356.089 124.729 355.674 125.097C350.351 128.523 346.32 133.625 344.219 139.597C349.31 140.643 354.121 142.759 358.332 145.805C361.264 144.26 364.029 142.417 366.582 140.305C369.692 137.432 371.274 134.187 367.089 134.75ZM399.209 178.207C397.157 182.457 395.244 189.58 399.209 192.195C400.193 192.836 401.315 193.234 402.483 193.356C403.651 193.478 404.832 193.321 405.927 192.897C409.339 191.312 411.374 183.995 412.014 180.32C407.63 180.974 403.151 180.235 399.209 178.207Z" fill="#FCAFB7"/>
<path d="M436.054 162.925C435.877 162.983 435.686 162.993 435.504 162.952C435.321 162.912 435.153 162.823 435.016 162.695C434.88 162.568 434.78 162.405 434.728 162.226C434.676 162.046 434.673 161.856 434.719 161.675C434.787 160.57 437.329 158.877 440.117 153.175C429.147 144.04 416.593 136.997 403.079 132.397C400.674 135.426 398.562 138.676 396.772 142.105C396.671 142.27 396.53 142.407 396.361 142.502C396.192 142.597 396.002 142.647 395.808 142.647C395.614 142.647 395.424 142.597 395.255 142.502C395.086 142.407 394.945 142.27 394.844 142.105C392.934 139.222 388.917 138.802 388.304 142.215C388.166 143.582 388.543 144.951 389.36 146.056C390.177 147.161 391.377 147.921 392.724 148.19C393.01 148.27 393.253 148.459 393.4 148.717C393.548 148.975 393.588 149.28 393.512 149.567C392.316 152.796 391.466 156.142 390.977 159.55C390.072 175.767 410.634 187.502 428.357 168.527C428.465 168.404 428.601 168.308 428.755 168.248C428.908 168.188 429.073 168.166 429.237 168.183C429.4 168.2 429.557 168.257 429.694 168.348C429.831 168.439 429.944 168.561 430.024 168.705C432.384 170.17 435.165 170.805 437.927 170.51C442.294 169.397 441.252 162.785 436.054 162.925Z" fill="#FCAFB7"/>
<path d="M429.885 453.132C427.985 450.255 423.55 448.52 420.452 447.487C415.929 445.892 411.003 445.849 406.452 447.365C402.465 448.795 396.157 453.165 396.637 457.497C397.007 460.967 405.667 460.582 407.872 460.61C412.007 460.663 416.139 460.405 420.235 459.837C423.455 459.37 433.25 458.225 429.885 453.132ZM368.972 448.217C366.412 446.976 363.624 446.277 360.781 446.163C357.938 446.05 355.103 446.524 352.452 447.557C348.747 449.1 344.232 452.13 344.245 455.762C344.272 459.262 352.92 459.762 355.107 459.99C359.215 460.467 363.354 460.628 367.487 460.472C370.75 460.335 380.607 460.195 377.772 454.787C376.172 451.73 371.947 449.565 368.972 448.217ZM316.475 451.812C315.982 449.499 314.676 447.439 312.793 446.006C310.911 444.574 308.577 443.866 306.216 444.009C303.855 444.152 301.623 445.138 299.927 446.787C298.232 448.436 297.184 450.639 296.975 452.995C296.285 462.245 304.422 461.037 312.242 460.197C316.82 459.715 317.265 455.79 316.475 451.812ZM267.912 444.102C265.702 444.403 263.66 445.448 262.124 447.065C260.587 448.682 259.647 450.775 259.46 452.997C258.77 462.235 266.91 461.037 274.727 460.195C279.3 459.715 279.727 455.79 278.942 451.812C278.435 449.362 277.01 447.199 274.959 445.765C272.909 444.332 270.387 443.737 267.912 444.102ZM181.05 439.695C180.635 438.732 180.237 437.63 179.08 437.41C177.855 437.16 176.865 437.795 175.692 437.975C173.262 438.34 172.552 438.167 170.007 441.855C164.042 450.587 162.612 449.162 156.007 454.222C154.785 455.157 155.007 456 156.297 456.472C163.467 459.18 170.875 455.51 176.562 450.417C177.35 449.722 177.907 449.575 178.862 451.167C179.762 452.69 182.112 454.947 183.545 454.732C187.567 454.087 182.647 443.397 181.05 439.695ZM230.285 454.22C223.46 448.95 222.31 450.672 216.285 441.857C213.72 438.135 213.035 438.357 210.6 437.975C209.516 437.575 208.367 437.383 207.212 437.41C206.07 437.63 205.67 438.732 205.242 439.695C203.64 443.385 198.727 454.107 202.742 454.745C204.227 454.972 206.547 452.635 207.425 451.177C208.14 449.995 208.727 449.497 209.725 450.427C215.427 455.535 222.787 459.177 229.99 456.485C231.302 456 231.5 455.162 230.285 454.22ZM137.817 446.305C125.632 444.762 111.41 457.222 121.067 457.98C126.29 458.29 131.527 458.29 136.75 457.98C140.455 457.83 152.392 459.797 152.392 453.657C152.37 448.067 141.59 446.782 137.817 446.305ZM100.45 421.162C94.8597 420.697 92.6847 431.337 91.8997 435.07C89.3647 447.09 100.572 462.29 102.15 452.747C102.893 447.568 103.335 442.35 103.472 437.12C103.615 433.415 106.575 421.675 100.45 421.162ZM294.362 169.162C294.793 169.179 295.2 169.362 295.499 169.672C295.798 169.983 295.965 170.397 295.965 170.829C295.965 171.26 295.798 171.674 295.499 171.985C295.2 172.295 294.793 172.478 294.362 172.495C293.931 172.478 293.524 172.295 293.225 171.985C292.926 171.674 292.759 171.26 292.759 170.829C292.759 170.397 292.926 169.983 293.225 169.672C293.524 169.362 293.931 169.179 294.362 169.162ZM273.325 170.5C273.755 170.516 274.163 170.699 274.462 171.01C274.761 171.321 274.928 171.735 274.928 172.166C274.928 172.597 274.761 173.011 274.462 173.322C274.163 173.633 273.755 173.816 273.325 173.832C272.894 173.816 272.486 173.633 272.188 173.322C271.889 173.011 271.722 172.597 271.722 172.166C271.722 171.735 271.889 171.321 272.188 171.01C272.486 170.699 272.894 170.516 273.325 170.5ZM292.765 176.362C291.393 178.222 289.493 179.625 287.311 180.389C285.13 181.153 282.77 181.242 280.537 180.645C279.162 180.217 278.57 182.38 279.947 182.805C282.564 183.511 285.33 183.426 287.899 182.561C290.467 181.696 292.721 180.09 294.377 177.945C295.452 176.547 293.5 175.417 292.765 176.362ZM199.265 163.53C198.978 163.543 198.707 163.667 198.509 163.875C198.311 164.083 198.2 164.359 198.2 164.646C198.2 164.933 198.311 165.209 198.509 165.417C198.707 165.625 198.978 165.749 199.265 165.762C199.836 165.698 200.412 165.831 200.898 166.138C201.383 166.446 201.749 166.911 201.935 167.455C202.019 167.738 202.209 167.978 202.466 168.124C202.722 168.271 203.026 168.312 203.312 168.24C205.512 167.542 202.795 163.2 199.265 163.53ZM223.785 166.065C223.122 166.172 222.488 166.416 221.925 166.781C221.361 167.146 220.879 167.624 220.51 168.185C220.307 168.398 220.194 168.682 220.194 168.976C220.194 169.27 220.307 169.554 220.51 169.767C220.72 169.976 221.005 170.093 221.301 170.093C221.597 170.093 221.882 169.976 222.092 169.767C222.344 169.452 222.615 169.153 222.905 168.872C223.233 168.557 223.65 168.347 224.099 168.271C224.548 168.194 225.01 168.255 225.425 168.445C226.152 168.862 226.835 169.38 227.447 168.707C228.795 167.217 225.907 165.78 223.785 166.065ZM216.145 176.527C215.469 177.183 214.653 177.675 213.759 177.968C212.864 178.26 211.915 178.345 210.983 178.215C210.051 178.085 209.161 177.744 208.38 177.218C207.6 176.692 206.95 175.995 206.48 175.18C206.324 174.937 206.08 174.764 205.8 174.697C205.52 174.63 205.224 174.674 204.975 174.819C204.726 174.965 204.543 175.201 204.465 175.478C204.386 175.755 204.417 176.053 204.552 176.307C205.197 177.415 206.085 178.361 207.15 179.075C208.214 179.788 209.427 180.25 210.697 180.425C211.967 180.6 213.259 180.484 214.477 180.086C215.695 179.687 216.807 179.017 217.727 178.125C218.775 177.12 217.19 175.535 216.145 176.527Z" fill="black"/>
<path d="M245.032 163.16C244.763 162.277 244.285 161.471 243.639 160.811C242.993 160.152 242.197 159.657 241.319 159.37C240.442 159.083 239.508 159.011 238.597 159.162C237.685 159.312 236.824 159.679 236.085 160.233C236.07 159.655 236.055 159.078 236 158.498C236 156.123 237.205 155.063 234.405 146.41C233.962 145.048 231.802 145.625 232.242 147.003C233.623 150.274 234.185 153.833 233.88 157.37C232.917 157.37 231.952 157.355 230.975 157.328C231.387 156.187 231.497 154.958 231.292 153.763C231.216 153.483 231.038 153.242 230.792 153.088C230.618 152.985 230.42 152.932 230.218 152.933C230.017 152.934 229.819 152.99 229.647 153.095C229.474 153.2 229.334 153.349 229.239 153.527C229.145 153.706 229.101 153.906 229.112 154.108C229.232 155.167 229.09 156.24 228.7 157.233C219.172 156.733 203.882 154.628 194.335 153.115C194.61 151.164 195.18 149.265 196.027 147.485C196.168 147.23 196.204 146.93 196.127 146.649C196.05 146.367 195.866 146.128 195.614 145.98C195.363 145.833 195.064 145.789 194.781 145.859C194.498 145.929 194.253 146.107 194.1 146.355C193.13 148.38 192.466 150.538 192.132 152.758C188.937 152.258 189 151.878 188.415 155.525C187.295 154.124 185.688 153.197 183.915 152.93C174.792 152.01 174.965 168.14 188.382 168.558C188.972 172.509 190.462 176.272 192.737 179.556C195.012 182.84 198.011 185.558 201.502 187.5C201.6 187.555 201.697 187.583 201.792 187.638C200.662 192.7 199.47 200.638 203.127 204.303C208.36 209.515 217.74 208.975 220.255 199.883C221.051 196.036 221.352 192.103 221.15 188.18C224.203 186.965 226.943 185.078 229.168 182.658C231.392 180.239 233.042 177.35 233.997 174.205C241.965 174.525 246.502 168.273 245.032 163.16ZM218.157 199.08C217.932 200.415 217.354 201.666 216.484 202.704C215.614 203.741 214.482 204.527 213.206 204.98C211.93 205.434 210.556 205.538 209.226 205.283C207.897 205.027 206.659 204.422 205.642 203.528C201.747 200.613 202.79 193.573 203.892 188.508C208.726 190.207 213.97 190.356 218.892 188.933C219.047 192.332 218.8 195.738 218.157 199.08ZM242.307 167.923C241.364 169.42 239.995 170.601 238.376 171.314C236.756 172.027 234.96 172.239 233.22 171.923C232.976 171.926 232.739 172.008 232.546 172.157C232.353 172.306 232.213 172.513 232.147 172.748C225.2 194.075 194.487 193.098 190.397 167.185C190.33 166.951 190.189 166.744 189.996 166.595C189.802 166.447 189.566 166.364 189.322 166.36C187.513 166.554 185.687 166.197 184.085 165.334C182.483 164.472 181.179 163.145 180.345 161.528C178.117 156.065 184.062 151.688 188.167 159.075C188.294 159.281 188.484 159.441 188.709 159.53C188.934 159.619 189.182 159.633 189.416 159.569C189.649 159.506 189.856 159.369 190.006 159.179C190.155 158.988 190.239 158.755 190.245 158.513C190.382 157.263 190.59 156.048 190.837 154.835C205.052 157.362 219.415 158.963 233.837 159.628C233.88 160.645 233.892 161.665 233.852 162.683C233.857 162.902 233.925 163.116 234.05 163.297C234.174 163.478 234.348 163.618 234.551 163.702C234.754 163.785 234.977 163.807 235.193 163.766C235.408 163.724 235.607 163.621 235.765 163.468C240.2 158.595 244.947 162.975 242.307 167.923ZM158.445 89.6377C156.23 88.8327 154.445 90.5727 153.445 92.3877C152.365 91.4184 151.106 90.6694 149.74 90.1827C150.062 88.8302 158.442 54.3427 158.442 53.9177C158.772 52.5127 156.625 51.9177 156.28 53.3252C156.142 53.9177 147.91 88.1727 147.565 89.6052C145.345 89.3694 143.104 89.7343 141.074 90.6619C139.044 91.5895 137.301 93.0455 136.027 94.8777C132.16 100.348 134.557 108.07 139.455 112.433C141.302 114.083 140.34 112.523 141.41 115.228C140.237 120.155 139.18 123.978 138.505 127.248C138.005 128.723 140.282 129.42 140.64 127.963C141.232 125.5 143.007 118.093 143.105 117.733L144.797 117.665C143.547 114.683 143.75 115.138 143.847 114.65C147.097 114.938 149.567 111.17 147.51 107.243C152.307 108.938 154.564 104.783 152.177 101.638C155.74 102.33 157.907 98.0877 155.012 94.1627C155.667 92.6377 156.71 91.1352 158.152 91.9602C158.588 92.2426 158.947 92.6276 159.199 93.0813C159.451 93.5351 159.588 94.0438 159.597 94.5627C159.597 103.705 158.522 106.845 156.597 117.17L158.897 117.073C159.397 114.663 159.847 112.24 160.287 109.823C161.17 104.873 163.41 94.0377 160.315 90.8502C159.792 90.3084 159.152 89.8936 158.445 89.6377ZM152.855 99.5352C151.995 99.5102 150.447 98.3802 148.957 98.3802C148.784 98.3828 148.615 98.4249 148.461 98.5032C148.307 98.5816 148.173 98.6941 148.07 98.8321C147.966 98.9702 147.896 99.1301 147.864 99.2997C147.832 99.4692 147.839 99.6439 147.885 99.8102C148.533 100.854 149.3 101.819 150.17 102.688C151.92 104.905 150.312 106.058 148.022 105.208C147.097 104.88 144.837 103.598 144.152 103.735C143.955 103.782 143.774 103.879 143.626 104.017C143.477 104.154 143.367 104.328 143.306 104.521C143.246 104.714 143.236 104.92 143.278 105.117C143.32 105.315 143.413 105.499 143.547 105.65C148.255 110.355 145.532 114.925 141.012 110.9C136.855 107.09 134.555 100.92 137.847 96.1502C141.96 90.1852 150.767 90.4977 153.667 96.3002C154.147 97.3202 154.575 99.5877 152.855 99.5352ZM116.502 144.5C113.862 145.548 113.065 148.705 114.617 149.043C114.903 149.117 115.207 149.077 115.464 148.931C115.722 148.785 115.912 148.544 115.995 148.26C116.058 147.741 116.313 147.264 116.71 146.923C117.066 146.647 117.504 146.495 117.955 146.49C118.406 146.485 118.847 146.627 119.21 146.895L119.237 146.91C119.448 147.115 119.732 147.229 120.026 147.226C120.32 147.224 120.601 147.106 120.809 146.898C121.017 146.689 121.135 146.408 121.137 146.113C121.139 145.819 121.025 145.536 120.82 145.325C120.238 144.817 119.531 144.473 118.772 144.328C118.014 144.183 117.23 144.243 116.502 144.5ZM89.9745 147.035C89.7205 147.187 89.5361 147.432 89.4613 147.718C89.3865 148.005 89.4271 148.309 89.5745 148.565C90.612 150.208 91.6845 147.423 94.5045 149.185L94.532 149.198C95.0276 149.578 95.4006 150.095 95.6045 150.685C95.6831 150.972 95.8724 151.216 96.1307 151.363C96.389 151.51 96.6953 151.549 96.982 151.47C97.2688 151.392 97.5126 151.202 97.6598 150.944C97.807 150.686 97.8456 150.379 97.767 150.093C97.5229 149.329 97.1118 148.63 96.5635 148.045C96.0152 147.46 95.3436 147.005 94.5974 146.712C93.8512 146.419 93.0492 146.296 92.2495 146.352C91.4499 146.408 90.6727 146.641 89.9745 147.035ZM105.642 149.79C105.418 149.859 105.188 149.905 104.955 149.928C104.494 149.984 104.027 149.881 103.632 149.638L103.592 149.583C103.523 149.348 103.467 149.109 103.425 148.868C103.185 147.439 103.158 145.982 103.342 144.545C103.416 144.26 103.375 143.958 103.227 143.703C103.08 143.448 102.838 143.262 102.554 143.184C102.27 143.106 101.967 143.143 101.71 143.287C101.454 143.431 101.264 143.67 101.182 143.953C100.856 145.98 100.926 148.052 101.387 150.053C101.97 152.17 104.672 152.618 106.757 151.705C107.912 151.2 107.217 149.115 105.642 149.79ZM39.652 93.4652C39.4995 89.9652 38.492 83.0352 35.4795 81.2527C35.0395 80.9695 34.5289 80.8154 34.0056 80.8079C33.4824 80.8004 32.9675 80.9398 32.5195 81.2102C30.812 82.2852 29.537 86.8177 29.132 88.7977C28.0366 87.0278 26.7071 85.4141 25.1795 84.0002C21.2545 80.3652 19.827 85.8677 20.197 91.1727C18.302 89.3652 15.022 87.8427 13.3395 89.5477C10.1395 92.7977 17.017 106.235 19.0395 110.588C19.7399 110.316 20.4572 110.091 21.187 109.913C19.0047 105.378 17.0563 100.734 15.3495 96.0002C15.1145 95.1802 14.3295 91.4827 15.0045 91.1002C15.3495 90.9077 16.0795 91.1827 16.4245 91.3052C18.3637 92.2712 19.9732 93.7901 21.0495 95.6702C21.752 96.6352 23.487 96.1127 23.102 94.8027C22.5566 93.0532 22.3098 91.2243 22.372 89.3927C22.4182 87.9598 22.6708 86.5411 23.122 85.1802C25.6066 87.2729 27.56 89.9245 28.822 92.9177C29.3045 94.0177 30.847 93.3577 30.902 92.3527C31.0824 89.2025 31.952 86.1302 33.4495 83.3527C33.9995 82.6627 34.647 83.3252 35.0595 83.8527C36.9995 86.3527 37.6095 93.0202 37.427 96.3527C37.372 97.5377 38.927 97.7702 39.507 96.9177C40.1182 96.0063 40.9103 95.2304 41.8341 94.6381C42.7579 94.0459 43.7937 93.6501 44.877 93.4752C46.0895 93.2952 46.5145 93.7927 46.2545 94.9477C45.837 96.7802 39.702 108.65 39.067 109.873C39.882 110.005 40.1745 110.073 41.3795 110.315C41.9745 109.16 47.6295 97.9952 48.2495 96.0502C50.0395 90.3927 43.907 89.9402 39.652 93.4652Z" fill="black"/>
<path d="M126.308 139.395C126.21 138.693 126.1 138.005 125.99 137.303C126.712 135.808 127.178 134.202 127.368 132.553C128.206 129.547 127.991 126.345 126.76 123.478C124.645 119.838 117.648 115.94 110.323 117.145C106.37 117.793 102.268 119.775 98.55 118.275C96.9709 117.421 95.444 116.473 93.9775 115.438C89.4775 112.95 86.1925 116.503 88.7275 121.098C85.445 123.055 80.4775 119.073 77.7525 122.13C76.1425 123.948 77.3825 126.99 79.3925 128.338C77.5592 128.471 75.764 128.928 74.09 129.688C73.2574 130.077 72.5389 130.674 72.0039 131.421C71.4688 132.169 71.1352 133.041 71.035 133.955C71.0155 134.408 71.0898 134.86 71.2533 135.283C71.4169 135.706 71.6661 136.091 71.9854 136.413C72.3047 136.735 72.6871 136.988 73.1086 137.155C73.5302 137.322 73.9818 137.401 74.435 137.385C73.8772 137.41 73.3311 137.553 72.8328 137.805C72.3346 138.057 71.8955 138.412 71.5448 138.846C71.1941 139.281 70.9398 139.785 70.7986 140.325C70.6575 140.865 70.6328 141.429 70.7261 141.98C70.8195 142.53 71.0288 143.055 71.3401 143.518C71.6515 143.982 72.0578 144.374 72.5321 144.668C73.0064 144.963 73.538 145.153 74.0914 145.227C74.6449 145.3 75.2077 145.255 75.7425 145.095C75.69 146.008 76.0225 145.608 75.1925 146.14C74.2866 146.749 73.5879 147.619 73.1895 148.636C72.791 149.652 72.7119 150.765 72.9625 151.828C73.8575 155.228 77.835 156.95 80.8925 157.873C81.3858 158.091 81.9238 158.19 82.4625 158.16C84.33 170.765 86.9375 176.763 97.8975 179.213C97.6807 181.922 97.8194 184.649 98.31 187.323C99.2475 192.445 101.418 194.285 104.698 195.24C109.371 196.473 114.288 196.444 118.948 195.158C122.348 193.993 122.948 192.408 122.948 188.783C122.887 184.84 122.552 180.906 121.948 177.01C128.793 173.728 129.073 169.26 128.005 153.963C139.155 148.825 134.843 134.828 126.308 139.395ZM120 192.175C117.235 194.515 104.948 194.713 102.25 191.308C100.178 188.68 99.9 183.15 100.145 179.648C106.766 180.668 113.537 180.068 119.875 177.898C120.14 179.928 121.57 190.798 120 192.175ZM104.75 166.298C111.78 166.668 114 162.493 115.2 163.298C115.773 164.256 116.054 165.36 116.007 166.476C115.96 167.591 115.589 168.668 114.938 169.575C112.073 173.893 103.795 173.465 102.85 167.075C102.59 165.85 103.983 166.25 104.75 166.298ZM126.558 152.2C126.325 152.27 126.121 152.412 125.973 152.604C125.825 152.796 125.741 153.03 125.733 153.273C125.788 153.88 125.828 154.498 125.883 155.105C114.633 161.355 97.3825 160.465 84.6875 158.133C84.5925 157.473 84.495 156.813 84.4125 156.15C84.4057 155.932 84.3358 155.72 84.2112 155.54C84.0867 155.361 83.9128 155.221 83.7106 155.138C83.5084 155.055 83.2866 155.032 83.0718 155.073C82.8569 155.113 82.6584 155.214 82.5 155.365C82.335 155.53 82.155 155.698 82 155.848C70.72 153.028 74.975 145.325 82.2625 147.078C82.4282 147.12 82.6014 147.125 82.7692 147.091C82.9369 147.057 83.0948 146.986 83.2311 146.883C83.3675 146.779 83.4786 146.646 83.5564 146.494C83.6341 146.342 83.6764 146.174 83.68 146.003C83.5688 142.764 83.5688 139.522 83.68 136.283C87.3138 136.074 90.7845 134.703 93.58 132.373C93.5268 132.947 93.6005 133.526 93.796 134.069C93.9914 134.611 94.3037 135.105 94.7109 135.513C95.1181 135.922 95.6101 136.236 96.1521 136.433C96.6942 136.631 97.273 136.706 97.8475 136.655C100.768 136.2 102.185 132.655 104.898 131.533C106.027 131.165 107.234 131.109 108.392 131.371C109.55 131.633 110.616 132.203 111.478 133.02C112.252 133.893 113.239 134.552 114.343 134.933C115.485 135.14 116.875 133.998 116.343 132.965C116.702 133.492 117.173 133.934 117.722 134.26C118.27 134.586 118.883 134.788 119.518 134.852C120.153 134.917 120.794 134.842 121.397 134.632C122 134.423 122.549 134.084 123.008 133.64C123.037 133.665 123.069 133.688 123.103 133.708L124.37 141.558C124.416 141.722 124.499 141.874 124.612 142.001C124.726 142.129 124.867 142.229 125.025 142.294C125.182 142.358 125.353 142.386 125.523 142.375C125.694 142.364 125.859 142.315 126.008 142.23C133.45 136.72 135.593 148.77 126.568 152.2H126.558ZM367.198 142.795C368.37 141.818 369.436 140.719 370.378 139.518C371.975 137.453 372.91 133.68 369.608 132.675C368.281 132.323 366.881 132.357 365.573 132.773C367.465 128.923 365.92 126.505 363.22 126.15C354.405 89.3426 351.818 77.8401 351.22 76.0601C350.89 74.6551 348.72 75.2476 349.06 76.6526C349.775 79.6526 358.753 117.063 359.962 122.06C358.868 121.832 357.736 121.869 356.659 122.165C355.581 122.462 354.59 123.012 353.768 123.768C348.268 127.554 344.145 133.023 342.018 139.353C342.784 139.382 343.548 139.466 344.302 139.603C346.414 133.636 350.442 128.538 355.757 125.103C356.598 124.363 357.698 123.987 358.815 124.058C361.258 124.625 358.717 127.953 357.147 129.868C356.397 130.868 358.085 132.195 358.898 131.218C359.574 130.154 360.471 129.247 361.527 128.56C361.887 128.343 362.305 128.243 362.724 128.272C363.142 128.302 363.542 128.46 363.867 128.725C365.305 130.16 362.45 133.54 361.09 135.045C360.09 136.133 361.555 137.495 362.67 136.628C365.115 134.795 370.253 133.505 369.64 136.243C368.833 139.925 361.39 143.993 358.39 145.798C360.803 147.468 360.033 147.385 361.048 146.798C363.718 145.155 363.798 145.19 365.275 144.223C365.335 144.473 370.4 165.723 370.59 166.378C370.612 166.529 370.664 166.674 370.744 166.805C370.824 166.935 370.93 167.048 371.055 167.137C371.18 167.225 371.321 167.287 371.471 167.318C371.621 167.35 371.775 167.351 371.925 167.321C372.075 167.291 372.217 167.23 372.343 167.143C372.469 167.056 372.576 166.944 372.657 166.815C372.738 166.685 372.792 166.54 372.816 166.389C372.839 166.238 372.831 166.083 372.793 165.935C371.943 162.628 371.54 160.94 367.198 142.795ZM437.897 160.873C439.71 158.584 441.244 156.088 442.467 153.438C442.586 153.224 442.633 152.977 442.602 152.734C442.57 152.492 442.46 152.266 442.29 152.09C442.165 151.993 442.04 151.898 441.917 151.788C430.391 142.185 417.184 134.803 402.965 130.018C402.774 129.963 402.573 129.962 402.381 130.013C402.19 130.064 402.016 130.166 401.878 130.308C399.515 133.217 397.41 136.327 395.587 139.603C392.525 136.653 387.76 136.815 386.307 140.91C385.807 142.738 386.011 144.687 386.88 146.371C387.75 148.054 389.22 149.35 391 150C390.072 152.726 389.38 155.528 388.932 158.373C387.995 159.845 388.432 170.255 396.63 176.545C396.85 176.71 397.085 176.863 397.303 177.028C391.33 189.37 396.337 196.528 404.595 195.528C405.991 195.295 407.307 194.715 408.421 193.842C409.535 192.968 410.411 191.828 410.97 190.528C412.588 187.306 413.701 183.853 414.267 180.293C414.284 180.168 414.279 180.042 414.253 179.92C420.037 178.514 425.248 175.36 429.178 170.888C429.684 171.166 430.208 171.41 430.747 171.618C443.852 177.398 446.382 162.965 437.897 160.873ZM405.913 192.898C404.817 193.321 403.637 193.478 402.469 193.356C401.301 193.234 400.179 192.836 399.195 192.195C395.232 189.573 397.157 182.498 399.195 178.208C403.135 180.227 407.607 180.966 411.987 180.32C411.35 183.95 409.353 191.285 405.913 192.898ZM437.87 170.538C435.109 170.83 432.329 170.196 429.967 168.735C429.889 168.59 429.776 168.467 429.639 168.375C429.502 168.283 429.345 168.226 429.181 168.208C429.017 168.191 428.851 168.213 428.698 168.273C428.544 168.334 428.408 168.43 428.3 168.555C410.82 187.323 390.008 176.055 390.918 159.58C391.406 156.172 392.255 152.826 393.452 149.598C393.529 149.311 393.49 149.005 393.343 148.748C393.196 148.49 392.953 148.3 392.668 148.22C391.318 147.957 390.117 147.198 389.299 146.093C388.481 144.988 388.107 143.617 388.25 142.25C388.853 138.828 392.885 139.268 394.79 142.14C394.89 142.306 395.031 142.443 395.2 142.538C395.369 142.633 395.559 142.683 395.752 142.683C395.946 142.683 396.136 142.633 396.305 142.538C396.474 142.443 396.615 142.306 396.715 142.14C398.505 138.712 400.616 135.462 403.02 132.433C416.535 137.03 429.091 144.073 440.06 153.21C437.365 158.79 434.73 160.63 434.663 161.71C434.619 161.891 434.625 162.08 434.678 162.258C434.732 162.435 434.831 162.596 434.967 162.723C435.102 162.85 435.269 162.939 435.45 162.98C435.631 163.022 435.82 163.015 435.997 162.96C441.108 162.813 442.232 169.448 437.87 170.538Z" fill="black"/>
<path d="M404.58 153.19C404.664 153.473 404.854 153.713 405.111 153.859C405.368 154.006 405.671 154.047 405.958 153.975C406.242 153.894 406.484 153.705 406.631 153.448C406.778 153.191 406.818 152.886 406.743 152.6C404.42 145.91 398.815 147.582 399.458 149.445C399.538 149.73 399.728 149.973 399.986 150.12C400.243 150.266 400.548 150.306 400.835 150.23C401.197 150.093 401.588 150.054 401.97 150.116C402.351 150.178 402.71 150.339 403.01 150.582L402.985 150.56L403.04 150.587H403.01C403.748 151.306 404.289 152.202 404.58 153.19ZM418.665 159.11C418.417 159.264 418.239 159.508 418.169 159.791C418.099 160.074 418.142 160.373 418.29 160.625C418.437 160.876 418.677 161.06 418.959 161.137C419.24 161.214 419.54 161.179 419.795 161.037C420.092 160.798 420.433 160.62 420.799 160.514C421.165 160.408 421.549 160.376 421.928 160.42C422.349 160.485 422.75 160.646 423.101 160.889C423.452 161.132 423.743 161.451 423.953 161.822C424.103 162.077 424.348 162.262 424.634 162.337C424.92 162.412 425.224 162.371 425.48 162.222C427.69 160.79 422.53 156.225 418.665 159.11ZM411.093 166.89C410.687 167.117 410.244 167.271 409.785 167.345C409.767 167.342 409.748 167.342 409.73 167.345C407.565 167.707 405.418 166.095 405.695 164.977C405.769 164.692 405.728 164.39 405.58 164.135C405.433 163.88 405.191 163.694 404.907 163.616C404.623 163.538 404.32 163.575 404.063 163.719C403.807 163.863 403.617 164.102 403.535 164.385C402.66 167.822 407.913 171.18 412.25 168.777C412.504 168.627 412.689 168.382 412.764 168.096C412.839 167.81 412.798 167.506 412.65 167.25C412.476 167.014 412.224 166.848 411.938 166.782C411.652 166.716 411.352 166.754 411.093 166.89ZM403.095 143.595C403.369 143.384 403.687 143.236 404.025 143.162C404.363 143.088 404.713 143.09 405.05 143.167C405.794 143.463 406.57 143.672 407.363 143.787C407.658 143.786 407.94 143.668 408.149 143.459C408.357 143.25 408.474 142.968 408.475 142.672C408.47 142.517 408.435 142.365 408.37 142.223C408.306 142.082 408.215 141.955 408.101 141.85C407.987 141.744 407.854 141.662 407.708 141.608C407.562 141.555 407.408 141.531 407.253 141.537H407.195C406.409 141.214 405.585 140.994 404.743 140.882C403.07 140.765 400.648 141.852 401.508 143.195C401.661 143.447 401.906 143.63 402.192 143.704C402.477 143.779 402.78 143.74 403.038 143.595H403.095ZM425.84 152.805C425.77 153.091 425.812 153.393 425.958 153.649C426.103 153.905 426.341 154.096 426.623 154.182C428.528 155.135 428.255 155.665 428.6 156.122C428.717 156.434 428.801 156.758 428.85 157.087C428.85 157.383 428.968 157.667 429.177 157.876C429.386 158.085 429.669 158.202 429.965 158.202C430.261 158.202 430.544 158.085 430.753 157.876C430.963 157.667 431.08 157.383 431.08 157.087C430.808 153.105 426.303 150.687 425.84 152.805ZM426.775 154.237C426.873 154.277 426.83 154.265 426.775 154.25V154.237ZM428.58 156.082L428.6 156.122C428.573 156.055 428.525 155.917 428.58 156.082Z" fill="black"/>
<path d="M156.455 205C155.398 199.73 144.615 197.315 139.313 196.407C133.873 195.465 129.478 196.217 128.34 201.6C127.008 207.885 130.415 210.99 133.84 209.57C136.086 208.265 137.823 206.238 138.77 203.82C138.898 203.614 139.089 203.455 139.314 203.367C139.539 203.278 139.787 203.265 140.021 203.328C140.254 203.391 140.461 203.529 140.611 203.719C140.76 203.909 140.844 204.143 140.85 204.385C140.623 207.01 139.048 209.81 140.628 211.42C142.045 212.857 145.013 209.387 145.998 207.62C146.126 207.414 146.316 207.255 146.542 207.167C146.767 207.078 147.015 207.065 147.248 207.128C147.482 207.191 147.689 207.329 147.838 207.519C147.987 207.709 148.072 207.943 148.078 208.185C147.751 210.077 148.076 212.024 149 213.707C149.225 214.02 149.513 214.283 149.845 214.478C150.178 214.673 150.548 214.795 150.931 214.838C151.314 214.881 151.702 214.842 152.069 214.725C152.436 214.609 152.775 214.416 153.063 214.16C154.37 212.942 155.303 211.376 155.753 209.647C156.406 208.191 156.649 206.584 156.455 205Z" fill="#A76C6C"/>
<path d="M259.02 241.762C256.6 240.444 253.9 239.724 251.145 239.662C248.635 239.051 245.986 239.446 243.765 240.765C240.562 243.315 240.962 249.097 243.035 249.015C244.095 248.96 244.935 247.68 245.472 246.91C245.615 246.683 245.833 246.514 246.089 246.434C246.344 246.353 246.62 246.367 246.867 246.471C247.113 246.575 247.315 246.764 247.435 247.003C247.555 247.243 247.586 247.517 247.522 247.777C246.705 251.277 250.235 254.002 253.772 248.865C254.352 248.01 255.922 248.245 255.852 249.43C255.672 252.43 259.887 253.572 260.947 249.18C261.399 247.892 261.457 246.498 261.114 245.177C260.771 243.856 260.042 242.667 259.02 241.762ZM332.707 246.94C331.262 246.1 326.972 246.982 325.34 247.38C320.782 248.49 316.902 249.115 315.8 251.662C314.51 254.662 315.957 259.662 318.87 258.132C319.361 257.826 319.756 257.387 320.009 256.866C320.262 256.345 320.363 255.763 320.3 255.187C320.306 254.968 320.375 254.755 320.5 254.574C320.625 254.394 320.8 254.253 321.003 254.17C321.206 254.087 321.429 254.064 321.645 254.106C321.86 254.147 322.059 254.25 322.217 254.402C323.195 255.365 324.117 257.525 325.617 257.735C327.367 257.985 327.367 255.215 327.392 254.127C327.397 253.908 327.466 253.694 327.59 253.513C327.714 253.332 327.888 253.192 328.091 253.108C328.295 253.025 328.518 253.003 328.733 253.044C328.949 253.086 329.147 253.189 329.305 253.342C329.955 253.892 330.587 254.457 331.235 255.007C332.175 255.807 332.697 257.032 334.07 255.007C334.753 253.698 334.99 252.201 334.744 250.744C334.498 249.288 333.783 247.952 332.707 246.94Z" fill="#FFCEB6"/>
<path d="M150.622 197.18C147.047 195.777 143.325 194.78 139.527 194.207C135.755 193.572 131.375 193.517 128.497 196.477C127.124 198.177 126.24 200.219 125.942 202.383C125.644 204.548 125.942 206.752 126.805 208.76C128.805 212.655 133.805 213.665 137.682 209.462C137.682 213.442 141.452 216.38 145.887 211.512C146.49 216.285 150.122 218.16 153.417 216.565C155.445 215.348 156.933 213.403 157.577 211.127C160.09 204.702 158.837 200.572 150.622 197.18ZM155.752 209.647C155.309 211.382 154.372 212.95 153.055 214.162C152.767 214.418 152.428 214.611 152.061 214.728C151.694 214.845 151.306 214.883 150.923 214.841C150.54 214.798 150.17 214.675 149.837 214.48C149.505 214.286 149.217 214.023 148.992 213.71C148.07 212.026 147.745 210.08 148.07 208.187C148.063 207.945 147.979 207.712 147.83 207.522C147.68 207.331 147.474 207.194 147.24 207.131C147.006 207.067 146.759 207.081 146.533 207.169C146.308 207.258 146.118 207.417 145.99 207.622C144.99 209.372 142.042 212.872 140.62 211.422C139.047 209.82 140.62 206.962 140.842 204.387C140.836 204.145 140.752 203.912 140.602 203.722C140.453 203.531 140.246 203.394 140.013 203.331C139.779 203.267 139.531 203.281 139.306 203.369C139.081 203.458 138.89 203.617 138.762 203.822C137.824 206.246 136.084 208.275 133.832 209.572C130.42 210.99 126.995 207.892 128.332 201.602C129.465 196.19 133.915 195.48 139.305 196.41C144.612 197.322 155.325 199.717 156.447 205.002C156.623 206.585 156.383 208.186 155.752 209.647Z" fill="black"/>
<path d="M455.537 206.075C455.194 205.597 455.012 202.85 453.472 202.04C452.362 201.455 451.779 202.922 451.557 204.065C451.067 207.612 451.006 211.205 451.377 214.767C451.807 214.63 452.254 214.517 452.692 214.385L452.877 213.977C452.976 211.14 453.9 208.394 455.537 206.075Z" fill="#FCAFB7"/>
<path d="M481.033 205.5C478.851 201.635 466.718 193.91 457.216 203.973C455.593 198.668 451.496 198.955 450.096 201.453C448.316 204.588 448.978 212.203 449.196 215.453C450.326 215.063 450.716 214.973 451.376 214.77C451.111 211.448 450.546 200.498 453.443 202.02C455.001 202.828 455.176 205.59 455.508 206.053C450.476 213.393 452.461 222.725 460.396 215.665C459.471 222.303 465.146 222.23 468.918 217.758C470.406 226.75 486.043 214.383 481.033 205.5ZM479.361 211.868C478.761 213.464 477.812 214.906 476.582 216.088C475.353 217.27 473.875 218.162 472.256 218.698C470.551 218.91 471.141 214.735 471.506 213.053C471.568 212.771 471.519 212.477 471.371 212.23C471.222 211.984 470.984 211.804 470.706 211.728C470.428 211.652 470.132 211.685 469.878 211.822C469.625 211.958 469.433 212.187 469.343 212.46C467.976 216.993 464.343 219.005 463.053 218.67C461.848 218.27 463.161 213.545 463.768 211.92C464.141 210.9 462.583 209.95 461.896 210.833C460.646 212.433 456.228 217.4 455.286 215.603C454.536 213.64 455.491 208.623 459.473 204.853C461.073 203.161 463.141 201.987 465.412 201.479C467.684 200.971 470.056 201.153 472.223 202.003C477.366 203.775 481.318 206.83 479.361 211.878V211.868ZM332.186 244.46C329.903 244.259 327.604 244.475 325.398 245.095C327.501 220 314.108 201 296.566 195.708C296.768 193.648 296.718 191.572 296.416 189.525C299.738 188.129 302.578 185.79 304.587 182.798C306.595 179.806 307.684 176.291 307.718 172.688C314.108 172.28 316.526 167.223 315.071 164.315C314.438 162.993 313.327 161.96 311.962 161.426C310.597 160.892 309.08 160.896 307.718 161.438C310.968 147.245 306.191 134.735 291.748 131.56C288.138 130.765 286.308 132.445 285.998 134.48C273.778 132.193 274.518 138.69 269.531 140.923C265.176 142.863 260.843 140.998 258.916 143.898C258.467 144.648 258.328 145.544 258.528 146.394C258.729 147.245 259.254 147.985 259.991 148.455C256.711 150.823 253.098 157.635 256.521 160.705C257.321 161.364 258.267 161.823 259.28 162.044C260.293 162.264 261.344 162.24 262.346 161.973C262.14 163.242 261.983 164.519 261.876 165.8C254.126 164.463 251.233 175.698 262.041 176.663C263.323 186.243 269.471 191.308 279.253 192.47C279.226 193.53 279.238 194.603 279.278 195.663C265.791 199.893 252.466 214.26 249.651 237.325C247.736 237.112 245.798 237.37 244.006 238.075C242.834 238.634 241.812 239.464 241.025 240.496C240.237 241.528 239.706 242.733 239.476 244.01C238.133 250.235 242.173 252.793 245.396 250.248C246.286 253.808 250.353 255.658 254.146 251.873C254.574 252.66 255.222 253.307 256.01 253.734C256.799 254.162 257.694 254.352 258.588 254.282C259.482 254.212 260.336 253.885 261.049 253.34C261.761 252.794 262.3 252.055 262.601 251.21C263.524 249.314 263.784 247.162 263.34 245.1C262.895 243.038 261.771 241.185 260.148 239.838C257.594 238.453 254.762 237.659 251.861 237.513C254.456 215.885 267.061 201.818 279.466 197.94C279.47 199.625 279.864 201.286 280.616 202.793C281.369 204.301 282.459 205.614 283.803 206.63C288.303 209.653 294.396 207.63 295.891 200.708C296.084 199.813 296.236 198.904 296.346 197.983C312.778 203.095 325.368 221.343 323.111 245.635C318.993 246.713 314.423 247.48 313.391 251.885C312.965 253.297 312.941 254.799 313.32 256.224C313.699 257.648 314.467 258.939 315.538 259.953C316.1 260.308 316.735 260.533 317.396 260.609C318.057 260.685 318.727 260.612 319.355 260.394C319.984 260.176 320.555 259.818 321.026 259.349C321.498 258.88 321.857 258.31 322.078 257.683C323.208 259.058 324.461 260.353 326.443 259.933C327.241 259.724 327.954 259.272 328.485 258.64C329.015 258.008 329.336 257.227 329.403 256.405C330.558 257.378 331.193 258.12 332.186 258.32C332.837 258.39 333.495 258.28 334.087 258C334.68 257.72 335.183 257.283 335.543 256.735C336.502 255.411 337.049 253.835 337.118 252.202C337.187 250.569 336.774 248.952 335.931 247.553C335.627 246.758 335.122 246.055 334.466 245.513C333.809 244.971 333.024 244.608 332.186 244.46ZM259.021 241.763C262.593 244.23 261.461 251.263 258.758 252C258.387 252.091 258 252.091 257.63 251.999C257.259 251.907 256.916 251.727 256.631 251.474C256.345 251.221 256.125 250.902 255.99 250.545C255.854 250.188 255.807 249.804 255.853 249.425C255.923 248.24 254.353 248.005 253.773 248.86C252.773 250.32 250.923 252.425 248.901 251.503C248.295 251.117 247.832 250.544 247.583 249.87C247.334 249.196 247.313 248.459 247.523 247.773C247.587 247.513 247.556 247.238 247.435 246.999C247.315 246.76 247.114 246.571 246.867 246.467C246.621 246.362 246.345 246.349 246.09 246.429C245.834 246.51 245.616 246.678 245.473 246.905C241.296 253.008 239.751 243.988 243.766 240.765C245.987 239.447 248.636 239.051 251.146 239.663C253.901 239.721 256.602 240.441 259.021 241.763ZM294.323 195.115C294.128 198.433 293.771 202.515 291.348 204.545C290.516 205.23 289.49 205.639 288.415 205.713C287.339 205.788 286.267 205.524 285.348 204.96C281.533 202.753 281.371 197.275 281.451 192.583C285.858 192.775 290.258 192.043 294.366 190.433C294.438 191.993 294.424 193.556 294.323 195.115ZM289.751 189.538C277.708 192.475 265.451 188.655 264.143 175.565C264.135 175.272 264.015 174.993 263.808 174.785C263.6 174.577 263.321 174.456 263.028 174.448C260.948 174.338 257.443 173.815 257.183 171.13C257.006 169.19 259.183 167.045 262.553 168.253C262.719 168.296 262.892 168.301 263.06 168.267C263.227 168.234 263.385 168.163 263.522 168.06C263.658 167.957 263.769 167.824 263.847 167.671C263.925 167.519 263.967 167.351 263.971 167.18C264.11 165.199 264.361 163.226 264.721 161.273C269.908 159.455 269.378 157.773 268.411 160.818C267.183 164.795 272.616 168.245 278.911 163.298C278.887 163.787 278.963 164.277 279.135 164.736C279.307 165.195 279.571 165.614 279.911 165.968C283.396 169.31 292.113 162.705 295.278 159C297.938 161.539 301.337 163.164 304.983 163.64C304.998 163.683 304.998 163.723 305.011 163.75C305.058 163.914 305.142 164.065 305.255 164.192C305.369 164.319 305.51 164.419 305.668 164.483C305.825 164.548 305.996 164.577 306.166 164.567C306.336 164.557 306.502 164.508 306.651 164.425C311.233 161.275 315.433 165.518 311.758 168.955C310.296 170.075 308.472 170.615 306.636 170.47C306.341 170.474 306.06 170.593 305.851 170.801C305.643 171.009 305.524 171.291 305.521 171.585C305.001 180.733 300.623 186.888 289.751 189.538ZM334.043 255C332.671 257 332.201 255.855 331.208 255.015C330.569 254.456 329.926 253.9 329.281 253.348C329.121 253.199 328.923 253.1 328.708 253.061C328.494 253.022 328.274 253.045 328.072 253.128C327.871 253.21 327.697 253.349 327.572 253.527C327.447 253.705 327.375 253.915 327.366 254.133C327.366 255.22 327.366 257.988 325.591 257.74C324.091 257.535 323.166 255.373 322.188 254.41C322.03 254.258 321.832 254.156 321.617 254.115C321.402 254.074 321.18 254.096 320.977 254.179C320.775 254.262 320.601 254.402 320.476 254.582C320.351 254.762 320.282 254.974 320.276 255.193C320.333 255.768 320.23 256.349 319.977 256.869C319.724 257.39 319.332 257.83 318.843 258.14C315.911 259.675 314.503 254.625 315.771 251.67C316.886 249.098 320.756 248.465 325.316 247.388C326.896 247.003 331.293 246.098 332.681 246.948C333.263 247.38 333.708 247.972 333.961 248.653C334.559 249.6 334.884 250.694 334.899 251.815C334.913 252.935 334.617 254.038 334.043 255Z" fill="black"/>
<path d="M479.36 211.878C478.761 213.474 477.811 214.916 476.582 216.098C475.352 217.28 473.874 218.172 472.255 218.708C470.55 218.92 471.14 214.745 471.505 213.063C471.567 212.782 471.519 212.487 471.37 212.241C471.221 211.994 470.983 211.814 470.706 211.738C470.428 211.662 470.131 211.695 469.878 211.832C469.624 211.968 469.432 212.197 469.342 212.47C467.975 217.003 464.342 219.015 463.052 218.68C461.847 218.28 463.16 213.555 463.767 211.93C464.14 210.91 462.582 209.96 461.895 210.843C460.645 212.443 456.227 217.41 455.285 215.613C454.535 213.65 455.49 208.633 459.472 204.863C461.072 203.172 463.14 201.997 465.412 201.489C467.684 200.981 470.055 201.164 472.222 202.013C477.365 203.775 481.317 206.83 479.36 211.878Z" fill="#FCAFB7"/>
</svg>
